<?xml version="1.0" encoding="UTF-8" standalone="no" ?>
<!DOCTYPE svg PUBLIC "-//W3C//DTD SVG 1.1//EN" "http://www.w3.org/Graphics/SVG/1.1/DTD/svg11.dtd">
<svg xmlns="http://www.w3.org/2000/svg" xmlns:xlink="http://www.w3.org/1999/xlink" version="1.1" width="1080" height="1080" viewBox="0 0 1080 1080" xml:space="preserve">
<desc>Created with Fabric.js 5.2.4</desc>
<defs>
</defs>
<g transform="matrix(1 0 0 1 540 540)" id="77da0c43-58b9-4cf9-9669-9acab644d591"  >
<rect style="stroke: none; stroke-width: 1; stroke-dasharray: none; stroke-linecap: butt; stroke-dashoffset: 0; stroke-linejoin: miter; stroke-miterlimit: 4; fill: rgb(255,255,255); fill-rule: nonzero; opacity: 1; visibility: hidden;" vector-effect="non-scaling-stroke"  x="-540" y="-540" rx="0" ry="0" width="1080" height="1080" />
</g>
<g transform="matrix(1 0 0 1 540 540)" id="a7ded868-e7a5-4a2f-a46a-71f87e8d20c4"  >
</g>
<g transform="matrix(3.74 0 0 3.74 556.02 540)"  >
<path style="stroke: none; stroke-width: 1; stroke-dasharray: none; stroke-linecap: butt; stroke-dashoffset: 0; stroke-linejoin: miter; stroke-miterlimit: 4; fill: rgb(251,96,3); fill-rule: nonzero; opacity: 1;" vector-effect="non-scaling-stroke"  transform=" translate(-314.4, -184.67)" d="M 396.8 78.13 C 374.79 56.11999999999999 345.52 43.99999999999999 314.4 43.99999999999999 C 283.28 43.99999999999999 254.01 56.11999999999999 231.99999999999997 78.13 C 209.98999999999998 100.14 197.86999999999998 129.41 197.86999999999998 160.53 C 197.86999999999998 191.65 209.98999999999998 220.92000000000002 231.99999999999997 242.93 L 314.4 325.33000000000004 L 396.79999999999995 242.93000000000004 C 418.80999999999995 220.92000000000004 430.92999999999995 191.65000000000003 430.92999999999995 160.53000000000003 C 430.92999999999995 129.41000000000003 418.80999999999995 100.14000000000003 396.79999999999995 78.13000000000002 Z M 243.08 231.85 L 243.08 231.85 C 203.77 192.53 203.76000000000002 128.55 243.08 89.22999999999999 C 282.40000000000003 49.90999999999999 346.38 49.90999999999999 385.70000000000005 89.22999999999999 C 403.07000000000005 106.6 412.76000000000005 128.76999999999998 414.78000000000003 151.51 C 397.19000000000005 143.64 383.64000000000004 132.69 370.44000000000005 122.02 C 352.90000000000003 107.84 334.77000000000004 93.16999999999999 308.37000000000006 86.94999999999999 L 300.3500000000001 85.05999999999999 L 298.8500000000001 93.15999999999998 C 298.68000000000006 94.05999999999999 295.2800000000001 112.86999999999998 297.69000000000005 129.77999999999997 C 287.99000000000007 134.29999999999998 279.52000000000004 140.03999999999996 270.49000000000007 148.15999999999997 C 255.42000000000007 150.85999999999996 242.78000000000006 152.90999999999997 242.64000000000007 152.92999999999998 L 236.05000000000007 153.99999999999997 L 236.05000000000007 160.66999999999996 C 236.05000000000007 175.96999999999997 240.58000000000007 187.87999999999997 249.51000000000008 196.07999999999996 C 260.32000000000005 205.99999999999994 276.94000000000005 210.09999999999997 300.2700000000001 208.57999999999996 C 313.3200000000001 220.10999999999996 323.5000000000001 232.39999999999995 331.5600000000001 246.55999999999995 C 340.0200000000001 261.41999999999996 337.4000000000001 280.11999999999995 325.3100000000001 292.2199999999999 L 325.3100000000001 292.2199999999999 C 319.2700000000001 298.25999999999993 309.48000000000013 298.25999999999993 303.4500000000001 292.2199999999999 L 243.0700000000001 231.83999999999992 Z M 359.3 258.25 L 355.99 261.56 C 345.48 234.62 330.48 213.71 308.05 194.56 L 305.56 192.43 L 302.29 192.71 C 282.11 194.44 267.93 191.69 260.14000000000004 184.54000000000002 C 255.71000000000004 180.48000000000002 253.07000000000005 174.79000000000002 252.14000000000004 167.27 C 257.79 166.32000000000002 266.31000000000006 164.87 275.51000000000005 163.20000000000002 L 277.76000000000005 162.79000000000002 L 279.44000000000005 161.23000000000002 C 289.56000000000006 151.86 298.27000000000004 146.22000000000003 309.4800000000001 141.78000000000003 L 315.9100000000001 139.23000000000002 L 314.19000000000005 132.53000000000003 C 311.90000000000003 123.61000000000003 312.39000000000004 112.26000000000003 313.15000000000003 104.60000000000002 C 331.75000000000006 110.89000000000003 345.27000000000004 122.96000000000002 360.59000000000003 134.20000000000002 C 395.67 159.96 390.84000000000003 226.70000000000002 359.3 258.24 Z" stroke-linecap="round" />
</g>
<g transform="matrix(3.74 0 0 3.74 532.5 453.5)"  >
<path style="stroke: none; stroke-width: 1; stroke-dasharray: none; stroke-linecap: butt; stroke-dashoffset: 0; stroke-linejoin: miter; stroke-miterlimit: 4; fill: rgb(251,96,3); fill-rule: nonzero; opacity: 1;" vector-effect="non-scaling-stroke"  transform=" translate(-308.11, -161.55)" d="M 308.45 167.6 C 312.01 167.48999999999998 314.26 165.2 314.24 161.71 C 314.23 158.73000000000002 311.01 155.37 308.18 155.5 C 303.5 155.72 302.08 157.77 301.99 161.75 C 301.92 165.28 304.77 167.72 308.44 167.6 Z" stroke-linecap="round" />
</g>
</svg>