<?xml version="1.0" encoding="UTF-8"?>
<svg id="Capa_1" xmlns="http://www.w3.org/2000/svg" version="1.1" viewBox="0 0 634 474">
  <!-- Generator: Adobe Illustrator 29.0.0, SVG Export Plug-In . SVG Version: 2.1.0 Build 186)  -->
  <defs>
    <style>
      .st0 {
        fill: #fff;
      }

      .st1 {
        fill: #fb6003;
      }
    </style>
  </defs>
  <g>
    <g>
      <path class="st0" d="M144.71,326.25c.07.6.02,1.17-.17,1.73-.19.56-.39,1.1-.61,1.62-.45,0-.82.04-1.12.11-.3.15-.39.41-.28.78.11.38.06.71-.17,1.01-.15.3-.3.63-.45,1.01-.15.37-.3.67-.45.89-.07.52.06.93.39,1.23.33.3.5.67.5,1.12.07.3.06.58-.06.84-.11.26-.24.54-.39.84-.15.3-.32.56-.5.78-.19.22-.35.49-.5.78-.22.37-.47.78-.73,1.23-.26.45-.5.86-.73,1.23-.3.3-.65.6-1.06.89-.41.3-.8.6-1.17.89-.15.22-.3.47-.45.73-.15.26-.3.58-.45.95-1.19.97-2.39,1.94-3.58,2.91-1.19.97-2.42,1.86-3.69,2.68-.89.3-1.83.54-2.79.73-.97.19-1.94.35-2.91.5-.75.08-1.49.19-2.24.34-.75.15-1.53.33-2.35.56-.45.07-.89.13-1.34.17-.45.04-.97.05-1.56.05-.97.08-1.92.13-2.85.17-.93.04-1.81.06-2.63.06-.89.37-1.38.82-1.45,1.34-.08.45-.19.89-.34,1.34-.15.45-.3.89-.45,1.34,0,.97-.06,1.98-.17,3.02-.11,1.04-.13,2.05-.06,3.02,0,.37-.04.63-.11.78,0,.45-.02.91-.06,1.4-.04.49-.06.95-.06,1.4s.02.88.06,1.29c.04.41.09.8.17,1.17.22,1.42.04,2.83-.56,4.25,0,.37-.08.71-.22,1.01-.22.6-.63.82-1.23.67-1.12-.37-2.22-.58-3.3-.62-1.08-.04-2.22.02-3.41.17h-1.45c-1.04.52-2.12.86-3.24,1.01-1.12.15-2.27.26-3.47.34-.67,0-1.08-.22-1.23-.67-.08-.08-.11-.15-.11-.22-.15-1.86-.34-3.76-.56-5.7-.22-1.94-.3-3.84-.22-5.7,0-.37-.02-.74-.06-1.12-.04-.37-.09-.71-.17-1.01-.15-.82-.26-1.66-.34-2.51-.08-.86-.15-1.69-.22-2.51v-.89c0-.3-.07-.6-.22-.89-.3-.6-.43-1.23-.39-1.9.04-.67.06-1.27.06-1.79.22-.52.37-.95.45-1.29.07-.33.15-.73.22-1.17-.22-.3-.32-.58-.28-.84.04-.26-.02-.5-.17-.73,0-.15-.04-.28-.11-.39-.08-.11-.11-.2-.11-.28-.08-1.86-.13-3.99-.17-6.37-.04-2.38-.04-4.62,0-6.71.04-2.09.09-3.58.17-4.47.15-.3.32-.56.5-.78.19-.22.32-.45.39-.67,0-.22-.08-.39-.22-.5-.15-.11-.3-.2-.45-.28.15-.67.32-1.34.5-2.01.19-.67.35-1.34.5-2.01-.08-.37-.15-.71-.22-1.01-.08-.3-.19-.6-.34-.89.22-.52.45-1.12.67-1.79-.08-.6-.13-1.27-.17-2.01-.04-.74-.13-1.53-.28-2.35.15-.22.26-.54.34-.95.07-.41.19-.8.34-1.17.15-.37.17-.74.06-1.12s-.06-.71.17-1.01c.45-.15.82-.19,1.12-.11.15.08.33.17.56.28s.41.21.56.28h.78c.89-.3,1.81-.58,2.74-.84.93-.26,1.81-.58,2.63-.95.52-.3,1.12-.37,1.79-.22.45.08.88.13,1.29.17.41.04.8-.02,1.17-.17.52-.07,1.02-.13,1.51-.17.48-.04.99-.06,1.51-.06,1.42,0,2.83-.11,4.25-.34,1.42-.22,2.83-.48,4.25-.78.6-.22,1.23-.3,1.9-.22.67.08,1.3.08,1.9,0,.52.15,1.04.32,1.56.5.52.19,1.04.35,1.56.5.52.15,1.04.28,1.56.39.52.11,1.12.24,1.79.39,1.12-.3,2.31-.43,3.58-.39,1.27.04,2.5.09,3.69.17.67.08,1.32.22,1.96.45.63.22,1.21.52,1.73.89.74.3,1.56.78,2.46,1.45.37.3.73.62,1.06.95.34.33.65.69.95,1.06.15.08.26.21.34.39.07.19.15.35.22.5.15.52.41.93.78,1.23.37.3.71.63,1.01,1.01,1.34,2.01,2.01,4.32,2.01,6.93.15.45.34.91.56,1.4.22.49.41.91.56,1.29ZM126.72,327.82c-.08-.45-.21-.89-.39-1.34-.19-.45-.35-.89-.5-1.34-.07-.22-.17-.41-.28-.56-.11-.15-.21-.26-.28-.33-.15-.37-.45-.48-.89-.33-.15.15-.3.26-.45.33-.15.08-.3.19-.45.33-.37.08-.73.13-1.06.17-.33.04-.69.09-1.06.17h-1.34c-.22-.15-.47-.32-.73-.5-.26-.18-.58-.39-.95-.61-.52-.07-1.1-.13-1.73-.17-.63-.04-1.25-.02-1.84.05-1.42.3-2.53.86-3.35,1.68-.45-.15-.82-.22-1.12-.22-.22-.15-.45-.18-.67-.11-.22.08-.45.11-.67.11-.45.22-.86.49-1.23.78-.37.3-.67.71-.89,1.23-.08.3-.17.61-.28.95-.11.33-.17.69-.17,1.06-.07.75-.13,1.51-.17,2.29-.04.78-.09,1.58-.17,2.4,0,.45-.02.91-.06,1.4-.04.49-.02.95.06,1.4,0,.08.04.22.11.45.07.22.15.41.22.56,1.04-.15,2.01-.24,2.91-.28.89-.04,1.75.02,2.57.17.82.22,1.66.37,2.52.45.86.07,1.66.22,2.4.45.37.07.82.04,1.34-.11.45-.37.88-.74,1.29-1.12.41-.37.84-.74,1.29-1.12.37-.07.73-.13,1.06-.17.34-.04.65-.09.95-.17.45-.37.89-.76,1.34-1.17.45-.41.86-.8,1.23-1.17.15-.52.28-1.01.39-1.45.11-.45.2-.93.28-1.45.15-.45.32-.88.5-1.29.19-.41.28-.88.28-1.4Z"/>
      <path class="st0" d="M193.9,334.86c-.08.75-.13,1.51-.17,2.29-.04.78-.13,1.55-.28,2.29-.07.75-.11,1.55-.11,2.4s-.15,1.73-.45,2.63c-.15.22-.34.47-.56.73-.22.26-.45.58-.67.95,0,.3.02.56.06.78.04.22.09.49.17.78-.15.37-.37.69-.67.95-.3.26-.6.47-.89.62-.75.22-1.44.45-2.07.67-.63.22-1.29.41-1.96.56-1.04.15-2.12.17-3.24.06s-2.24-.13-3.35-.06c-.97,0-1.99.02-3.07.06-1.08.04-2.18.06-3.3.06h-6.26c-.3.22-.61.3-.95.22-.33-.07-.65-.04-.95.11-.3-.15-.63-.17-1.01-.06-.37.11-.75.09-1.12-.06-.3.08-.58.13-.84.17-.26.04-.58.09-.95.17-.3-.07-.56-.17-.78-.28-.22-.11-.49-.06-.78.17.15.22.32.47.5.73.19.26.32.58.39.95.22.3.41.6.56.89.15.3.3.63.45,1.01.15.3.26.62.34.95.07.33.15.65.22.95.37.37.78.75,1.23,1.12.45.37.89.75,1.34,1.12.37.08.76.15,1.17.22.41.08.8.15,1.17.22.45.08.89.15,1.34.22.45.07.93.07,1.45,0,.52-.15,1.01-.13,1.45.06.45.19.93.32,1.45.39.67-.07,1.36-.15,2.07-.22.71-.07,1.4-.15,2.07-.22.3-.22.61-.43.95-.62.34-.19.65-.39.95-.62.97-.22,1.94-.18,2.91.11.22.37.5.75.84,1.12.33.37.65.78.95,1.23.45.67.89,1.32,1.34,1.96.45.63.74,1.36.89,2.18.15.37.37.75.67,1.12.3.37.52.71.67,1.01.07.38.06.71-.06,1.01-.11.3-.21.63-.28,1.01-.3.3-.67.56-1.12.78-.08,0-.15.08-.22.22-.08.15-.19.26-.34.33-.45.3-.89.6-1.34.89-.45.3-.86.6-1.23.89-1.04.89-2.12,1.34-3.24,1.34-.45,0-.78.04-1.01.11-.37.07-.75.22-1.12.45-.37.22-.78.41-1.23.56-.37,0-.75.06-1.12.17-.37.11-.75.2-1.12.28-.22,0-.49-.02-.78-.06-.3-.04-.6-.05-.89-.05-.67.07-1.34.04-2.01-.11-.67-.15-1.34-.22-2.01-.22-.22-.08-.45-.15-.67-.22s-.45-.11-.67-.11c-1.27.08-2.46-.13-3.58-.61-1.12-.48-2.24-.99-3.35-1.51-.89-.22-1.53-.63-1.9-1.23-.52-.59-1.1-1.1-1.73-1.51-.63-.41-1.32-.76-2.07-1.06-.45-.15-.89-.35-1.34-.62-.45-.26-.93-.54-1.45-.84-.08-.3-.19-.6-.34-.89-.15-.3-.3-.6-.45-.89-.15-.22-.35-.45-.61-.67-.26-.22-.5-.45-.73-.67-.22-.22-.41-.48-.56-.78-.37-1.27-.75-2.52-1.12-3.74-.37-1.23-.86-2.44-1.45-3.63.07-.52.13-1.06.17-1.62.04-.56-.02-1.17-.17-1.84-.07-.15-.11-.34-.11-.56v-.56c0-.37.02-.69.06-.95.04-.26.02-.5-.06-.73-.07-.6-.15-1.19-.22-1.79-.08-.6-.04-1.15.11-1.68.15-.6.3-1.19.45-1.79.15-.6.34-1.23.56-1.9-.08-.15-.11-.37-.11-.67s-.04-.6-.11-.89c.15-.82.3-1.64.45-2.46.15-.82.33-1.6.56-2.35.22-.45.46-.88.73-1.29.26-.41.54-.84.84-1.29.52-.89.93-1.75,1.23-2.57.89-.45,1.43-.73,1.62-.84.19-.11.35-.28.5-.5.15-.22.63-.67,1.45-1.34-.08-.22.11-.56.56-1.01.45-.45.6-.82.45-1.12.67-1.27,1.64-2.27,2.91-3.02.45-.3.88-.61,1.29-.95.41-.34.76-.65,1.06-.95.37-.22.73-.32,1.06-.28.34.04.65.06.95.06.22-.07.46-.13.73-.17.26-.04.54-.09.84-.17.15-.07.33-.15.56-.22s.41-.19.56-.34c.15-.07.3-.15.45-.22.15-.07.3-.11.45-.11.67-.07,1.3-.26,1.9-.56.6-.3,1.15-.6,1.68-.89,1.12.45,2.27.6,3.46.45.74-.07,1.47-.04,2.18.11.71.15,1.36.33,1.96.56l1.56-.45c.6.08,1.15.26,1.68.56.52.3,1.04.6,1.56.89h1.01c.07.07.15.13.22.17.07.04.15.09.22.17.82.75,1.6,1.44,2.35,2.07.74.63,1.53,1.29,2.35,1.96,1.12.75,1.83,1.64,2.12,2.68.3.45.56.78.78,1.01.89.75,1.68,1.75,2.35,3.02,0,.15.02.35.06.61.04.26.06.5.06.73-.08.37,0,.75.22,1.12.22.37.37.78.45,1.23ZM179.7,338.55v-2.79c0-.37-.04-.6-.11-.67-.07-.22-.17-.45-.28-.67-.11-.22-.21-.37-.28-.45v-1.9l-.34-.33c-.3,0-.67-.07-1.12-.22-.15-.67-.34-1.19-.56-1.57-.22-.3-.52-.48-.89-.56-.37-.07-.78-.19-1.23-.34-.97.3-2.01.56-3.13.78s-2.2.52-3.24.89c-.52.07-1.01.11-1.45.11s-.89.04-1.34.11c-.75.3-1.4.77-1.96,1.4-.56.63-1.1,1.25-1.62,1.84-.3.37-.56.78-.78,1.23-.22.45-.49.86-.78,1.23-.08.08-.11.3-.11.67.22.6.56.97,1.01,1.12.45.07.89.19,1.34.33.45.15.93.3,1.45.45.22-.07.43-.11.61-.11s.39-.04.61-.11c.89-.37,1.64-.41,2.24-.11.6.08,1.14.08,1.62,0,.48-.07.99-.15,1.51-.22.45.22.91.37,1.4.45.48.08.95.19,1.4.34.97.3,1.9.45,2.79.45s1.79-.11,2.68-.34c.37-.37.56-.71.56-1.01Z"/>
      <path class="st0" d="M237.27,366.27c-.37.75-.71,1.49-1.01,2.24-.3.75-.63,1.49-1.01,2.24l-2.35,2.24c-1.42,1.56-3.09,2.5-5.03,2.79-.97.15-1.96.2-2.96.17s-2.03-.21-3.07-.5c-.6-.15-1.21-.36-1.84-.62-.63-.26-1.25-.54-1.84-.84-.45-.22-.93-.39-1.45-.5-.52-.11-1.08-.2-1.68-.28-.22-.15-.49-.32-.78-.5-.3-.19-.63-.39-1.01-.62-.52-.89-1.14-1.71-1.84-2.46-.71-.74-1.25-1.68-1.62-2.79,0-.89-.04-1.51-.11-1.84-.08-.34-.3-1.02-.67-2.07v-7.38c0-.6-.02-1.17-.06-1.73-.04-.56-.13-1.1-.28-1.62-.08-.52-.09-.97-.06-1.34.04-.37.09-.82.17-1.34.22-.89.22-1.83,0-2.79.22-.89.48-1.79.78-2.68,0-.45-.11-1.08-.33-1.9-.22-.82-.49-1.6-.78-2.35-.37,0-.75-.04-1.12-.11-.37-.07-.78-.15-1.23-.22-.45.15-.91.3-1.4.45-.49.15-1.02.3-1.62.45-.22.15-.56.22-1.01.22-.08,0-.21-.09-.39-.28-.19-.19-.28-.32-.28-.39-.08-.22-.11-.45-.11-.67v-.67c-.08-.6-.11-1.23-.11-1.9v-1.9c0-.6-.04-1.17-.11-1.73-.07-.56-.19-1.1-.33-1.62.07-.37.15-.73.22-1.06.07-.33.15-.65.22-.95v-2.12c0-.6.09-1.12.28-1.57.19-.45.58-.86,1.17-1.23.45-.15.95-.22,1.51-.22h1.84c.6.08,1.21.06,1.84-.06.63-.11,1.21-.43,1.73-.95.15-.15.35-.22.61-.22h.61c1.49.07,2.79-.52,3.91-1.79.07-.45.3-1.08.67-1.9-.22-.52-.41-1.1-.56-1.73-.15-.63-.34-1.25-.56-1.84.15-.22.3-.45.45-.67.15-.22.26-.48.33-.78.15-.37.15-.73,0-1.06-.15-.33-.19-.61-.11-.84-.15-.37-.22-.63-.22-.78s-.08-.41-.22-.78c.07-.15.15-.32.22-.5.07-.18.15-.35.22-.5.07-.3.15-.54.22-.73.07-.19.15-.43.22-.73h1.23c.37.07.76.13,1.17.17.41.04.8.02,1.17-.06.15,0,.33.02.56.06.22.04.45.06.67.06,1.27.15,2.51.34,3.74.56,1.23.22,2.44.34,3.63.34.15,0,.32.04.5.11.19.08.32.15.39.22.3.15.56.33.78.56-.08.3-.19.58-.34.84-.15.26-.26.5-.33.73-.08.3-.13.63-.17,1.01-.04.37-.09.75-.17,1.12-.08.52-.15,1.04-.22,1.57-.08.52-.19,1.12-.34,1.79.07.08.11.26.11.56s.04.56.11.78c-.08.52-.17,1.01-.28,1.45s-.21.97-.28,1.56c.97.75,2.03,1.38,3.19,1.9,1.15.52,2.55,1.01,4.19,1.45.82.52,1.3,1.38,1.45,2.57,0,1.72-.11,3.43-.33,5.14-.08.67-.15,1.34-.22,2.01-.08.67-.08,1.34,0,2.01-.97.6-2.12.89-3.47.89-.22,0-.45.04-.67.11-.22.08-.41.11-.56.11-1.19.07-2.11.19-2.74.33-.63.15-1.62.52-2.96,1.12-.22.3-.34.71-.34,1.23-.07.45-.13.89-.17,1.34-.04.45-.02.93.06,1.45,0,.08-.07.15-.22.22-.45.89-.78,1.57-1.01,2.01-.22.45-.35.89-.39,1.34-.04.45-.06,1.19-.06,2.24v5.37c0,.37.04.6.11.67.07.67.41,1.23,1.01,1.68.3.07.58.15.84.22.26.08.46.26.61.56.67.89,1.43,1.36,2.29,1.4.86.04,1.77-.09,2.74-.39.3-.15.6-.3.89-.45.3-.15.6-.26.89-.33.6.15.97.49,1.12,1.01.15.52.41.97.78,1.34.37.37.69.78.95,1.23.26.45.54.89.84,1.34.15.45.34.95.56,1.51.22.56.41,1.17.56,1.84Z"/>
      <path class="st0" d="M315.84,319.32c0,.6-.26.97-.78,1.12-.89.08-1.73.35-2.51.84-.78.49-1.58.84-2.4,1.06-.97-.07-1.9-.04-2.79.11-.89.15-1.86.11-2.91-.11-.15.15-.34.3-.56.45-.22.15-.45.3-.67.45-.3,0-.63.04-1.01.11-.37.08-.75.11-1.12.11h-2.79c-.6,0-1.19.02-1.79.06-.6.04-1.19.02-1.79-.06-.67,0-1.27.13-1.79.39-.52.26-1.08.39-1.68.39-.3,0-.56.02-.78.06-.22.04-.45.09-.67.17-.52-.15-1.02-.28-1.51-.39-.49-.11-.99.09-1.51.61-.37,1.27-.69,2.57-.95,3.91-.26,1.34-.47,2.65-.61,3.91-.22,1.34-.22,2.61,0,3.8.07.15.13.3.17.45.04.15.09.3.17.45h3.35c.52.22,1.06.49,1.62.78.56.3,1.14.63,1.73,1.01.15.07.35.13.61.17.26.04.54.09.84.17.22.08.48.15.78.22.3.08.6.19.89.34.52,0,1.01-.15,1.45-.45.45-.3.93-.48,1.45-.56h.56c.37,0,.73.04,1.06.11.33.07.65.07.95,0,.97-.22,1.94-.24,2.91-.06.97.19,1.9.28,2.79.28.6,0,1.17.11,1.73.34.56.22,1.1.49,1.62.78.3,2.53.43,5.09.39,7.66-.04,2.57-.09,5.12-.17,7.66,0,.3-.11.49-.34.56-.22.08-.45.08-.67,0-.15-.07-.32-.15-.5-.22-.19-.07-.43-.15-.73-.22h-6.48c-.67-.07-1.29-.07-1.84,0-.56.08-1.14.08-1.73,0-.6-.07-1.19-.13-1.79-.17-.6-.04-1.23-.09-1.9-.17-.52-.07-1.08-.11-1.68-.11s-1.23-.04-1.9-.11c-.37,0-.77-.07-1.17-.22-.41-.15-.8-.26-1.17-.34-.52.08-.91.26-1.17.56-.26.3-.58.6-.95.89-.08.15-.17.35-.28.62-.11.26-.24.5-.39.73.07.22.11.48.11.78.37.45.61.95.73,1.51s.17,1.14.17,1.73c0,.89.06,1.79.17,2.68.11.89.09,1.79-.06,2.68,0,.75.02,1.49.06,2.24.04.75.2,1.45.5,2.12.07.15.11.41.11.78-.45,1.04-1.04,2.05-1.79,3.02-.75.52-1.47.88-2.18,1.06-.71.18-1.47.46-2.29.84-.3-.08-.61-.11-.95-.11h-1.06c-.3.07-.78.33-1.45.78h-3.8c-.6,0-1.21.02-1.84.06-.63.04-1.32.06-2.07.06s-1.27-.33-1.56-1.01c-.08-.3-.11-.63-.11-1.01s-.04-.78-.11-1.23c-.22-.37-.41-.73-.56-1.06-.15-.34-.3-.65-.45-.95-.08-.45-.13-.89-.17-1.34-.04-.45-.09-.86-.17-1.23.22-.67.43-1.3.61-1.9.19-.6.39-1.23.61-1.9-.3-1.71-.49-3.48-.56-5.31-.07-1.83.04-3.67.34-5.53,0-.37-.06-.78-.17-1.23-.11-.45-.06-.93.17-1.45.45-.82.45-1.6,0-2.35-.08-.52-.13-1.04-.17-1.57-.04-.52.02-1.04.17-1.57.15-.22.22-.48.22-.78v-.89c.07-.37.04-.78-.11-1.23-.15-.45-.19-.89-.11-1.34.15-.37.24-.76.28-1.17.04-.41.06-.84.06-1.29,0-.52.04-1.04.11-1.57.07-.52.19-1.01.34-1.45-.08-.52-.13-.99-.17-1.4-.04-.41-.09-.84-.17-1.29.37-.82.58-1.66.61-2.52.04-.86.06-1.73.06-2.63v-1.79c0-.59.04-1.15.11-1.68.07-.6.13-1.17.17-1.73.04-.56.06-1.1.06-1.62,0-.15-.02-.32-.06-.5-.04-.19-.02-.35.06-.5.3-.6.43-1.17.39-1.73-.04-.56-.02-1.1.06-1.62,0-.45.02-.91.06-1.4.04-.48.09-.95.17-1.4-.08-.37-.19-.78-.34-1.23-.15-.45-.26-.82-.34-1.12.07-.37.17-.74.28-1.12.11-.37.17-.74.17-1.12.07-.89.67-1.49,1.79-1.79,1.34-.45,2.76-.78,4.25-1.01.52,0,.93-.15,1.23-.45.3-.15.63-.22,1.01-.22.45.07.91.07,1.4,0,.48-.07.99-.15,1.51-.22.6-.37,1.27-.56,2.01-.56,1.42-.07,2.83-.26,4.25-.56,1.42-.3,2.83-.48,4.25-.56.74-.07,1.45-.13,2.12-.17.67-.04,1.38.06,2.12.28.6.08,1.19.13,1.79.17.6.04,1.19.06,1.79.06.3,0,.6-.02.89-.06.3-.04.6-.06.89-.06,1.04-.07,1.83-.09,2.35-.06.52.04,1.04.09,1.56.17.52.07,1.3.22,2.35.45.52.08,1.02.13,1.51.17.48.04.95.13,1.4.28.82.37,1.71.63,2.68.78.37.08.67.21.89.39.22.19.41.35.56.5.3,1.19.3,2.35,0,3.46.22.67.45,1.45.67,2.35,0,.08-.02.24-.06.5-.04.26-.06.47-.06.61,0,.37.04.6.11.67.15.3.3.61.45.95.15.34.26.65.34.95.15.22.22.45.22.67v.67Z"/>
      <path class="st0" d="M341.66,314.63c.22.52.3,1.06.22,1.62-.08.56-.19,1.1-.34,1.62-.08.45-.22.88-.45,1.29-.22.41-.41.8-.56,1.17-.3.45-.61.86-.95,1.23-.34.37-.65.75-.95,1.12-.22.08-.41.21-.56.39-.15.19-.33.35-.56.5-.52.37-1.34.73-2.46,1.06-1.12.33-2.01.5-2.68.5-.37,0-.67-.07-.89-.22-.45,0-.89-.02-1.34-.06-.45-.04-.86-.06-1.23-.06-.22-.15-.47-.3-.73-.45-.26-.15-.47-.3-.61-.45-.37-.15-.77-.22-1.17-.22h-1.17c-.3-.22-.65-.43-1.06-.61-.41-.18-.8-.35-1.17-.5l-.67-2.01c.07-.6.15-1.25.22-1.96.07-.71,0-1.43-.22-2.18-.22-.15-.22-.33,0-.56.22-.52.22-1.04,0-1.56-.22-.52-.22-1.04,0-1.56.07-.15.11-.37.11-.67-.22-.45-.22-.88,0-1.29.22-.41.41-.76.56-1.06-.08-.22-.11-.46-.11-.73v-.61c.07-.07.13-.17.17-.28.04-.11.13-.21.28-.28.6-.15,1.1-.43,1.51-.84.41-.41.88-.73,1.4-.95.52-.45,1.1-.82,1.73-1.12.63-.3,1.25-.59,1.84-.89h1.56c.45,0,.89.07,1.34.22.22.08.48.11.78.11h.89c1.04-.15,1.86.26,2.46,1.23.15.37.41.6.78.67.37.08.71.19,1.01.33.74.67,1.23,1.53,1.45,2.57.15.45.32.89.5,1.34.19.45.32.89.39,1.34.15.45.28.91.39,1.4.11.49.2.95.28,1.4ZM340.99,340.34c-.15.45-.22.95-.22,1.51v1.73c.07.52.07,1.06,0,1.62-.07.56-.11,1.1-.11,1.62l-.78,1.12c.37.37.6.78.67,1.23.07.45.11.93.11,1.45v1.62c0,.56-.04,1.14-.11,1.73-.08.52-.22,1.08-.45,1.68-.22.6-.41,1.23-.56,1.9,0,.75-.02,1.62-.06,2.63-.04,1.01-.02,1.99.06,2.96.07,1.42,0,2.85-.22,4.3-.22,1.45-.67,2.81-1.34,4.08,0,.6.07,1.17.22,1.73.15.56.3,1.13.45,1.73,0,.07-.04.17-.11.28-.08.11-.11.24-.11.39-.37.52-.82.97-1.34,1.34-.08,0-.15.04-.22.11h-.45c-.82,0-1.66.06-2.52.17-.86.11-1.81.06-2.85-.17-.3-.15-.61-.33-.95-.56-.34-.22-.69-.41-1.06-.56-.3,0-.65-.02-1.06-.06-.41-.04-.8-.09-1.17-.17-.6-.67-1.19-1.38-1.79-2.12-.22-.15-.49-.26-.78-.33-.3-.07-.6-.18-.89-.33-.52-.37-.71-.97-.56-1.79.15-.82.34-1.53.56-2.12.22-.97.19-1.9-.11-2.79l-.45-1.56c0-.6-.04-1.15-.11-1.68-.07-.52-.07-1.04,0-1.56.07-.74.09-1.45.06-2.12-.04-.67-.06-1.38-.06-2.12.07-1.04.11-2.07.11-3.07v-2.96c0-.37.04-.6.11-.67.37-.6.56-1.17.56-1.73v-1.73c-.08-.59-.06-1.21.06-1.84.11-.63.09-1.21-.06-1.73v-1.96c0-.63.04-1.29.11-1.96.07-.37.13-.76.17-1.17.04-.41-.02-.88-.17-1.4.67-.3,1.25-.52,1.73-.67.48-.15.95-.22,1.4-.22h.95c.34,0,.65-.04.95-.11.74-.15,1.38-.3,1.9-.45.37.07.69.21.95.39.26.19.54.35.84.5.52,0,1.04-.11,1.56-.33.52-.07.99-.04,1.4.11.41.15.73.52.95,1.12.07.08.13.15.17.22.04.07.09.15.17.22l.78.45c.52.08.97-.02,1.34-.28.37-.26.74-.43,1.12-.5.45,0,.71.19.78.56.22.52.37,1.3.45,2.35Z"/>
      <path class="st0" d="M392.86,357.89c0,.6.02,1.21.06,1.84.04.63-.02,1.25-.17,1.84-.15.38-.19.71-.11,1.01.15.38.17.77.06,1.17-.11.41-.13.8-.06,1.17.15.52.19,1.1.11,1.73-.07.63-.07,1.25,0,1.84-.3.52-.78.78-1.45.78-.75,0-1.55.04-2.4.11-.86.08-1.7.26-2.52.56-.45.15-.93.22-1.45.22h-1.56c-.45-.3-.78-.56-1.01-.78-.89.3-1.64-.04-2.24-1.01-.3-.45-.54-.93-.73-1.45-.19-.52-.28-1.08-.28-1.68.07-.6.07-1.19,0-1.79-.07-.6-.07-1.23,0-1.9.15-1.12,0-2.2-.45-3.24-.07-.22-.15-.45-.22-.67-.08-.22-.11-.45-.11-.67,0-.82-.04-1.66-.11-2.52-.07-.86-.22-1.66-.45-2.4-.08-.37-.13-.73-.17-1.06-.04-.34-.06-.65-.06-.95-.22-.89-.71-1.6-1.45-2.12-.08-.6-.15-1.13-.22-1.62-.08-.48-.19-1.02-.33-1.62-.15-.15-.45-.37-.89-.67-.3-.22-.65-.41-1.06-.56-.41-.15-.8-.34-1.17-.56-.15-.15-.32-.35-.5-.62-.19-.26-.39-.5-.62-.73h-.67c-.3.08-.56.13-.78.17-.22.04-.52.02-.89-.06-.15-.07-.33-.09-.56-.05-.22.04-.41.05-.56.05-.37.52-.75,1.08-1.12,1.68-.3.22-.58.43-.84.61-.26.19-.47.35-.61.5-.22.22-.34.45-.34.67l-.78,2.35c.15.45.15.88,0,1.29-.15.41-.11.84.11,1.29.07.22.07.45,0,.67-.08.22-.15.41-.22.56-.22.3-.26.52-.11.67.15.15.26.33.33.56.07.07.15.22.22.45v2.57c0,.82-.15,1.64-.45,2.46.07.3.13.58.17.84.04.26.09.58.17.95-.08.45-.17.95-.28,1.51-.11.56-.13,1.14-.06,1.73.07.38.09.78.06,1.23-.04.45-.13.89-.28,1.34-.08.22-.08.45,0,.67.22.89.22,1.68,0,2.35-.22.67-.63,1.38-1.23,2.12-.07.08-.22.15-.45.22-.22.08-.41.15-.56.22-.15.15-.3.24-.45.28-.15.04-.3.09-.45.17-.3,0-.6-.02-.89-.06-.3-.04-.56-.05-.78-.05-.3.07-.54.17-.73.28-.19.11-.47.28-.84.5-.97-.15-1.96-.33-2.96-.56-1.01-.22-1.99-.15-2.96.22-.45-.07-.82-.26-1.12-.56-.3-.3-.56-.63-.78-1.01-.3-.45-.49-.95-.56-1.51s-.19-1.1-.33-1.62c.15-1.27.22-2.14.22-2.63s-.11-1.58-.33-3.3c.22-1.19.37-2.4.45-3.63.07-1.23.11-2.44.11-3.63v-4.81c0-1.64.04-3.28.11-4.92,0-.45.04-.89.11-1.34.07-.45.15-.86.22-1.23.15-.82.3-1.6.45-2.35.15-.74.33-1.45.56-2.12.15-.52.41-.97.78-1.34.37-.37.63-.82.78-1.34.15-1.04.46-1.96.95-2.74.48-.78.99-1.55,1.51-2.29.37-1.04,1.04-1.45,2.01-1.23.15,0,.22-.04.22-.11.22-.22.28-.52.17-.89-.11-.37-.02-.71.28-1.01.67-.6,1.45-1.06,2.35-1.4s1.71-.65,2.46-.95c.67,0,1.12.08,1.34.22.97.3,1.9.3,2.79,0,.67-.15,1.27.04,1.79.56.74.15,1.45.3,2.12.45.67.15,1.38.3,2.12.45.3-.07.6-.13.89-.17.3-.04.6-.09.89-.17.74.3,1.36.73,1.84,1.29.48.56.99,1.14,1.51,1.73.37.3.78.41,1.23.34s.93-.04,1.45.11c.37.37.76.78,1.17,1.23.41.45.84.86,1.29,1.23.07.3.17.58.28.84.11.26.2.54.28.84.37.08.63.26.78.56.15.3.26.56.34.78.74.3,1.49.52,2.24.67.37.37.71.8,1.01,1.29.3.48.78.73,1.45.73.15.75.3,1.42.45,2.01.15.6.3,1.19.45,1.79.15,1.12.41,2.09.78,2.91.3.6.56,1.21.78,1.84s.33,1.32.33,2.07c.07.45.24.86.5,1.23.26.37.46.78.61,1.23-.08.3-.13.6-.17.89-.04.3-.06.63-.06,1.01,0,.3.02.56.06.78.04.22.09.52.17.89,0,.15.02.35.06.62.04.26.02.47-.06.61-.15.52-.19,1.04-.11,1.57s.11,1.01.11,1.45Z"/>
      <path class="st0" d="M446.29,324.36c-.37,1.34-.6,2.7-.67,4.08-.08,1.38-.15,2.74-.22,4.08-.08,1.34-.11,2.7-.11,4.08v4.08c0,1.12-.08,2.24-.22,3.35-.15,1.12-.26,2.27-.33,3.46,0,.3-.02.63-.06,1.01-.04.38-.06.75-.06,1.12,0,1.04-.15,2.01-.45,2.91-.22.97-.33,1.94-.33,2.91,0,.52-.04,1.08-.11,1.68-.08.6-.22,1.19-.45,1.79-.08.37-.11.93-.11,1.68-.08.6-.22,1.19-.45,1.79-.15.52-.3,1.03-.45,1.51-.15.49-.3,1.03-.45,1.62-.3.45-.58.91-.84,1.4-.26.48-.54.95-.84,1.4-.67.37-1.23.86-1.68,1.45-.75.6-1.47,1.23-2.18,1.9-.71.67-1.4,1.3-2.07,1.9-.89.75-1.79,1.12-2.68,1.12-.08,0-.17.04-.28.11-.11.07-.24.11-.39.11-1.42.15-2.57.59-3.46,1.34-.08.07-.17.13-.28.17-.11.04-.24.13-.39.28-.97.15-1.96.07-2.96-.22-1.01-.3-1.92-.67-2.74-1.12h-1.79c-.3,0-.6-.02-.89-.06-.3-.04-.63-.09-1.01-.17-2.01-.45-3.95-1.3-5.81-2.57-.22-.22-.48-.37-.78-.45-.3-.07-.63-.15-1.01-.22-.45-.07-.89-.18-1.34-.33-.45-.15-.89-.3-1.34-.45-.37-.22-.67-.54-.89-.95-.22-.41-.45-.76-.67-1.06-.37-.74-.71-1.43-1.01-2.07-.3-.63-.63-1.32-1.01-2.07-.3-.6-.63-1.21-1.01-1.84-.38-.63-.75-1.21-1.12-1.73,0-.07.04-.11.11-.11s.11-.04.11-.11l-.22-.22c0,.07-.02.13-.05.17-.04.04-.06.09-.06.17-.07-.07-.17-.13-.28-.17-.11-.04-.21-.09-.28-.17-.3-.15-.52-.39-.67-.73-.15-.34-.3-.65-.45-.95.22-.45.33-1.04.33-1.79.15-.97.11-1.83-.11-2.57-.3-1.12-.43-2.24-.39-3.35.04-1.12.09-2.27.17-3.46,0-.37.15-.86.45-1.45.52-1.27.82-2.38.89-3.35.74-1.04,1.34-2.16,1.79-3.35.45-1.19.97-2.31,1.56-3.35.37-.15.69-.3.95-.45.26-.15.54-.26.84-.34.15-.15.26-.33.34-.56.07-.22.22-.41.45-.56.22-.15.48-.28.78-.39.3-.11.63-.2,1.01-.28.15-.22.28-.45.39-.67.11-.22.24-.45.39-.67.22-.22.37-.34.45-.34,1.71-.6,3.5-1.04,5.37-1.34.3-.07.62-.13.95-.17.34-.04.65-.09.95-.17.97-.3,1.94-.41,2.91-.33.97.07,1.94.07,2.91,0,.22,0,.46.04.73.11.26.08.5.15.73.22.22,0,.52.08.89.22.37.15.6.15.67,0,.74-.15,1.45.08,2.12.67.15.08.46.09.95.06.48-.04.76-.06.84-.06.67-.15,1.06-.46,1.17-.95.11-.48.09-.73-.06-.73l-.22-.22c.07-.97.06-1.94-.06-2.91-.11-.97-.13-1.94-.05-2.91.07-.37.11-.76.11-1.17v-1.17c-.08-.37-.08-.73,0-1.06.07-.34.11-.69.11-1.06s.02-.73.06-1.06c.04-.33-.02-.61-.17-.84-.22-.6-.32-1.19-.28-1.79.04-.6.13-1.19.28-1.79.22-.82.39-1.64.5-2.46.11-.82.09-1.71-.06-2.68v-.56c.3-.74.46-1.49.5-2.23.04-.74.09-1.42.17-2.01.37-.52.84-.88,1.4-1.06.56-.19.99-.43,1.29-.73,1.19-.07,2.31-.07,3.35,0,1.04.07,2.08-.04,3.13-.34.52.22,1.02.39,1.51.5.48.11.91.21,1.29.28.82.6,1.23,1.38,1.23,2.35v1.23c0,.45-.04.89-.11,1.34.07.3.19.56.34.78.15.22.26.52.33.89-.08.15-.13.36-.17.62-.04.26-.1.54-.17.84.07.3.15.67.22,1.12.07.45.15.86.22,1.23,0,1.19.02,2.35.05,3.46.04,1.12.02,2.24-.05,3.35,0,1.19.02,1.98.05,2.35.04.37.21,1.12.5,2.24ZM429.96,352.52c-.22-.6-.39-1.17-.5-1.73-.11-.56-.24-1.06-.39-1.51-.22-.52-.5-1.01-.84-1.45-.33-.45-.61-.93-.84-1.45-.75-.37-1.3-.74-1.68-1.12-.37-.15-.73-.26-1.06-.34-.34-.07-.69-.15-1.06-.22-.3-.15-.58-.28-.84-.39-.26-.11-.54-.2-.84-.28-.52.22-1.03.45-1.51.67-.49.22-.95.45-1.4.67-1.19.52-2.01,1.49-2.46,2.91-.08.3-.11.6-.11.89s-.04.63-.11,1.01c-.07.22-.21.45-.39.67-.19.22-.36.52-.5.89v2.01c.15.97.43,1.88.84,2.74.41.86,1.1,1.58,2.07,2.18.22.08.43.21.62.39.19.19.43.35.73.5.45.45.89.67,1.34.67,1.19-.15,2.35-.28,3.46-.39,1.12-.11,2.2-.39,3.24-.84.45-.37.78-.74,1.01-1.12.22-.3.41-.58.56-.84.15-.26.33-.54.56-.84v-2.91c0-.3.04-.56.11-.78Z"/>
      <path class="st0" d="M500.94,334.86c-.08.75-.13,1.51-.17,2.29-.04.78-.13,1.55-.28,2.29-.08.75-.11,1.55-.11,2.4s-.15,1.73-.45,2.63c-.15.22-.33.47-.56.73-.22.26-.45.58-.67.95,0,.3.02.56.06.78.04.22.09.49.17.78-.15.37-.37.69-.67.95-.3.26-.6.47-.89.62-.75.22-1.44.45-2.07.67-.63.22-1.29.41-1.96.56-1.04.15-2.12.17-3.24.06-1.12-.11-2.24-.13-3.35-.06-.97,0-1.99.02-3.07.06-1.08.04-2.18.06-3.3.06h-6.26c-.3.22-.61.3-.95.22-.34-.07-.65-.04-.95.11-.3-.15-.63-.17-1.01-.06-.37.11-.75.09-1.12-.06-.3.08-.58.13-.84.17-.26.04-.58.09-.95.17-.3-.07-.56-.17-.78-.28s-.49-.06-.78.17c.15.22.32.47.5.73.18.26.32.58.39.95.22.3.41.6.56.89.15.3.3.63.45,1.01.15.3.26.62.34.95.07.33.15.65.22.95.37.37.78.75,1.23,1.12.45.37.89.75,1.34,1.12.37.08.76.15,1.17.22.41.08.8.15,1.17.22.45.08.89.15,1.34.22s.93.07,1.45,0c.52-.15,1.01-.13,1.45.06.45.19.93.32,1.45.39.67-.07,1.36-.15,2.07-.22.71-.07,1.4-.15,2.07-.22.3-.22.61-.43.95-.62.34-.19.65-.39.95-.62.97-.22,1.94-.18,2.91.11.22.37.5.75.84,1.12.33.37.65.78.95,1.23.45.67.89,1.32,1.34,1.96.45.63.74,1.36.89,2.18.15.37.37.75.67,1.12.3.37.52.71.67,1.01.07.38.06.71-.06,1.01s-.21.63-.28,1.01c-.3.3-.67.56-1.12.78-.08,0-.15.08-.22.22-.08.15-.19.26-.34.33-.45.3-.89.6-1.34.89-.45.3-.86.6-1.23.89-1.04.89-2.12,1.34-3.24,1.34-.45,0-.78.04-1.01.11-.37.07-.75.22-1.12.45-.37.22-.78.41-1.23.56-.37,0-.75.06-1.12.17-.37.11-.75.2-1.12.28-.22,0-.49-.02-.78-.06-.3-.04-.6-.05-.89-.05-.67.07-1.34.04-2.01-.11-.67-.15-1.34-.22-2.01-.22-.22-.08-.45-.15-.67-.22-.22-.07-.45-.11-.67-.11-1.27.08-2.46-.13-3.58-.61-1.12-.48-2.24-.99-3.35-1.51-.89-.22-1.53-.63-1.9-1.23-.52-.59-1.1-1.1-1.73-1.51-.63-.41-1.32-.76-2.07-1.06-.45-.15-.89-.35-1.34-.62-.45-.26-.93-.54-1.45-.84-.08-.3-.19-.6-.34-.89-.15-.3-.3-.6-.45-.89-.15-.22-.35-.45-.62-.67-.26-.22-.5-.45-.73-.67-.22-.22-.41-.48-.56-.78-.37-1.27-.75-2.52-1.12-3.74-.37-1.23-.86-2.44-1.45-3.63.07-.52.13-1.06.17-1.62.04-.56-.02-1.17-.17-1.84-.08-.15-.11-.34-.11-.56v-.56c0-.37.02-.69.06-.95.04-.26.02-.5-.06-.73-.08-.6-.15-1.19-.22-1.79-.07-.6-.04-1.15.11-1.68.15-.6.3-1.19.45-1.79.15-.6.34-1.23.56-1.9-.08-.15-.11-.37-.11-.67s-.04-.6-.11-.89c.15-.82.3-1.64.45-2.46.15-.82.33-1.6.56-2.35.22-.45.46-.88.73-1.29.26-.41.54-.84.84-1.29.52-.89.93-1.75,1.23-2.57.89-.45,1.43-.73,1.62-.84.18-.11.35-.28.5-.5.15-.22.63-.67,1.45-1.34-.07-.22.11-.56.56-1.01.45-.45.6-.82.45-1.12.67-1.27,1.64-2.27,2.91-3.02.45-.3.88-.61,1.29-.95.41-.34.76-.65,1.06-.95.37-.22.73-.32,1.06-.28.33.04.65.06.95.06.22-.07.46-.13.73-.17.26-.04.54-.09.84-.17.15-.07.33-.15.56-.22s.41-.19.56-.34c.15-.07.3-.15.45-.22.15-.07.3-.11.45-.11.67-.07,1.3-.26,1.9-.56.6-.3,1.15-.6,1.68-.89,1.12.45,2.27.6,3.46.45.74-.07,1.47-.04,2.18.11.71.15,1.36.33,1.96.56l1.57-.45c.6.08,1.15.26,1.68.56.52.3,1.04.6,1.57.89h1.01c.07.07.15.13.22.17.07.04.15.09.22.17.82.75,1.6,1.44,2.35,2.07.74.63,1.53,1.29,2.35,1.96,1.12.75,1.83,1.64,2.12,2.68.3.45.56.78.78,1.01.89.75,1.68,1.75,2.35,3.02,0,.15.02.35.06.61.04.26.06.5.06.73-.07.37,0,.75.22,1.12s.37.78.45,1.23ZM486.75,338.55v-2.79c0-.37-.04-.6-.11-.67-.07-.22-.17-.45-.28-.67-.11-.22-.21-.37-.28-.45v-1.9l-.34-.33c-.3,0-.67-.07-1.12-.22-.15-.67-.34-1.19-.56-1.57-.22-.3-.52-.48-.89-.56-.37-.07-.78-.19-1.23-.34-.97.3-2.01.56-3.13.78s-2.2.52-3.24.89c-.52.07-1.01.11-1.45.11s-.89.04-1.34.11c-.75.3-1.4.77-1.96,1.4-.56.63-1.1,1.25-1.62,1.84-.3.37-.56.78-.78,1.23-.22.45-.49.86-.78,1.23-.08.08-.11.3-.11.67.22.6.56.97,1.01,1.12.45.07.89.19,1.34.33.45.15.93.3,1.45.45.22-.07.43-.11.61-.11s.39-.04.62-.11c.89-.37,1.64-.41,2.24-.11.6.08,1.13.08,1.62,0,.48-.07.99-.15,1.51-.22.45.22.91.37,1.4.45.48.08.95.19,1.4.34.97.3,1.9.45,2.79.45s1.79-.11,2.68-.34c.37-.37.56-.71.56-1.01Z"/>
      <path class="st0" d="M547.22,327.15c.15,1.19-.04,2.05-.56,2.57-.37.45-.62.93-.73,1.45s-.21,1.08-.28,1.68c-.15.22-.28.45-.39.67s-.24.45-.39.67c-.3.3-.58.63-.84,1.01-.26.37-.5.75-.73,1.12-.15.3-.26.63-.34,1.01-.07.38-.19.75-.33,1.12-.08.07-.13.17-.17.28-.04.11-.09.21-.17.28-.08.07-.17.11-.28.11s-.21.04-.28.11h-.56c-1.64-.67-3.24-.71-4.81-.11-.3.08-.56.11-.78.11h-.78c-.22.08-.43.11-.61.11s-.36.04-.5.11c-.89.37-1.68.86-2.35,1.45-.67.6-1.3,1.23-1.9,1.9-.3.89-.61,1.81-.95,2.74-.33.93-.5,1.96-.5,3.07,0,.08-.04.21-.11.39-.07.19-.15.35-.22.5-.08.3-.17.54-.28.73-.11.19-.24.43-.39.73-.15.45-.33.89-.56,1.34-.22.45-.41.89-.56,1.34.15.52.13,1.01-.06,1.45-.19.45-.28.89-.28,1.34.15.67.17,1.29.06,1.84s-.24,1.14-.39,1.73c-.22.67-.32,1.36-.28,2.07.04.71.05,1.4.05,2.07-.07.82-.09,1.68-.05,2.57.04.89.05,1.75.05,2.57,0,.52-.04,1.08-.11,1.68-.07.6-.11,1.19-.11,1.79-.22.45-.41.75-.56.89-.52.82-1.16,1.4-1.9,1.73-.75.34-1.57.46-2.46.39-.6-.08-1.21-.15-1.84-.22-.63-.08-1.25-.15-1.84-.22-.3-.08-.67-.17-1.12-.28s-.86-.24-1.23-.39c-.3.07-.54.13-.73.17-.19.04-.39.09-.61.17-.97-.3-1.86-.86-2.68-1.68.07-.52.11-1.04.11-1.57s.04-1.04.11-1.56c-.08-.22-.13-.5-.17-.84-.04-.34-.13-.65-.28-.95-.08-.45-.19-.89-.33-1.34-.15-.45-.19-.93-.11-1.45-.08-1.12-.3-2.42-.67-3.91.15-.15.28-.35.39-.61.11-.26.2-.5.28-.73.07-.22.13-.43.17-.62.04-.19.06-.39.06-.62,0-.15.04-.28.11-.39s.04-.24-.11-.39c-.07-.22-.13-.46-.17-.73-.04-.26-.09-.5-.17-.73-.08-.74-.08-1.49,0-2.24.07-.3.13-.58.17-.84.04-.26.09-.54.17-.84.15-.37.21-.78.17-1.23-.04-.45-.24-.82-.62-1.12-.07-.07-.13-.17-.17-.28-.04-.11-.13-.21-.28-.28-.07-.37-.13-.78-.17-1.23-.04-.45-.13-.86-.28-1.23-.07-.52-.17-1.01-.28-1.45-.11-.45-.17-.93-.17-1.45.15-.89.18-1.77.11-2.63-.08-.86,0-1.73.22-2.63,0-.15-.02-.34-.06-.56-.04-.22-.06-.41-.06-.56-.08-.82-.13-1.64-.17-2.46-.04-.82.09-1.64.39-2.46.15-.3.22-.63.22-1.01v-1.12c0-.67.02-1.32.06-1.96.04-.63.2-1.25.5-1.84,0-.22-.11-.6-.34-1.12.15-.37.28-.76.39-1.17.11-.41.2-.8.28-1.17.15-.37.26-.73.33-1.06.07-.33.15-.65.22-.95.45-.45.86-.63,1.23-.56.74.22,1.51.24,2.29.05.78-.18,1.55-.24,2.29-.17.22,0,.45-.06.67-.17.22-.11.45-.2.67-.28,1.27-.37,2.31-.33,3.13.11.52.89.82,1.56.89,2.01.07.45.15,1.53.22,3.24.22.82.63,1.6,1.23,2.35.15.15.39.24.73.28.33.04.58-.02.73-.17.3-.22.56-.43.78-.62.22-.19.45-.43.67-.73.45-.37.88-.76,1.29-1.17s.76-.76,1.06-1.06c.82-.37,1.62-.74,2.4-1.12.78-.37,1.66-.74,2.63-1.12h2.57l.22-.11c.07,0,.13-.02.17-.06.04-.04.09-.02.17.06l.33-.11c.89.45,1.68.56,2.35.34,1.19-.37,2.35-.22,3.46.45.67.3,1.3.6,1.9.89.6.3,1.23.63,1.9,1.01.22.3.48.6.78.89.3.3.56.6.78.89Z"/>
    </g>
    <g>
      <path class="st1" d="M144.71,326.25c.07.6.02,1.17-.17,1.73-.19.56-.39,1.1-.61,1.62-.45,0-.82.04-1.12.11-.3.15-.39.41-.28.78.11.38.06.71-.17,1.01-.15.3-.3.63-.45,1.01-.15.37-.3.67-.45.89-.07.52.06.93.39,1.23.33.3.5.67.5,1.12.07.3.06.58-.06.84-.11.26-.24.54-.39.84-.15.3-.32.56-.5.78-.19.22-.35.49-.5.78-.22.37-.47.78-.73,1.23-.26.45-.5.86-.73,1.23-.3.3-.65.6-1.06.89-.41.3-.8.6-1.17.89-.15.22-.3.47-.45.73-.15.26-.3.58-.45.95-1.19.97-2.39,1.94-3.58,2.91-1.19.97-2.42,1.86-3.69,2.68-.89.3-1.83.54-2.79.73-.97.19-1.94.35-2.91.5-.75.08-1.49.19-2.24.34-.75.15-1.53.33-2.35.56-.45.07-.89.13-1.34.17-.45.04-.97.05-1.56.05-.97.08-1.92.13-2.85.17-.93.04-1.81.06-2.63.06-.89.37-1.38.82-1.45,1.34-.08.45-.19.89-.34,1.34-.15.45-.3.89-.45,1.34,0,.97-.06,1.98-.17,3.02-.11,1.04-.13,2.05-.06,3.02,0,.37-.04.63-.11.78,0,.45-.02.91-.06,1.4-.04.49-.06.95-.06,1.4s.02.88.06,1.29c.04.41.09.8.17,1.17.22,1.42.04,2.83-.56,4.25,0,.37-.08.71-.22,1.01-.22.6-.63.82-1.23.67-1.12-.37-2.22-.58-3.3-.62-1.08-.04-2.22.02-3.41.17h-1.45c-1.04.52-2.12.86-3.24,1.01-1.12.15-2.27.26-3.47.34-.67,0-1.08-.22-1.23-.67-.08-.08-.11-.15-.11-.22-.15-1.86-.34-3.76-.56-5.7-.22-1.94-.3-3.84-.22-5.7,0-.37-.02-.74-.06-1.12-.04-.37-.09-.71-.17-1.01-.15-.82-.26-1.66-.34-2.51-.08-.86-.15-1.69-.22-2.51v-.89c0-.3-.07-.6-.22-.89-.3-.6-.43-1.23-.39-1.9.04-.67.06-1.27.06-1.79.22-.52.37-.95.45-1.29.07-.33.15-.73.22-1.17-.22-.3-.32-.58-.28-.84.04-.26-.02-.5-.17-.73,0-.15-.04-.28-.11-.39-.08-.11-.11-.2-.11-.28-.08-1.86-.13-3.99-.17-6.37-.04-2.38-.04-4.62,0-6.71.04-2.09.09-3.58.17-4.47.15-.3.32-.56.5-.78.19-.22.32-.45.39-.67,0-.22-.08-.39-.22-.5-.15-.11-.3-.2-.45-.28.15-.67.32-1.34.5-2.01.19-.67.35-1.34.5-2.01-.08-.37-.15-.71-.22-1.01-.08-.3-.19-.6-.34-.89.22-.52.45-1.12.67-1.79-.08-.6-.13-1.27-.17-2.01-.04-.74-.13-1.53-.28-2.35.15-.22.26-.54.34-.95.07-.41.19-.8.34-1.17.15-.37.17-.74.06-1.12s-.06-.71.17-1.01c.45-.15.82-.19,1.12-.11.15.08.33.17.56.28s.41.21.56.28h.78c.89-.3,1.81-.58,2.74-.84.93-.26,1.81-.58,2.63-.95.52-.3,1.12-.37,1.79-.22.45.08.88.13,1.29.17.41.04.8-.02,1.17-.17.52-.07,1.02-.13,1.51-.17.48-.04.99-.06,1.51-.06,1.42,0,2.83-.11,4.25-.34,1.42-.22,2.83-.48,4.25-.78.6-.22,1.23-.3,1.9-.22.67.08,1.3.08,1.9,0,.52.15,1.04.32,1.56.5.52.19,1.04.35,1.56.5.52.15,1.04.28,1.56.39.52.11,1.12.24,1.79.39,1.12-.3,2.31-.43,3.58-.39,1.27.04,2.5.09,3.69.17.67.08,1.32.22,1.96.45.63.22,1.21.52,1.73.89.74.3,1.56.78,2.46,1.45.37.3.73.62,1.06.95.34.33.65.69.95,1.06.15.08.26.21.34.39.07.19.15.35.22.5.15.52.41.93.78,1.23.37.3.71.63,1.01,1.01,1.34,2.01,2.01,4.32,2.01,6.93.15.45.34.91.56,1.4.22.49.41.91.56,1.29ZM126.72,327.82c-.08-.45-.21-.89-.39-1.34-.19-.45-.35-.89-.5-1.34-.07-.22-.17-.41-.28-.56-.11-.15-.21-.26-.28-.33-.15-.37-.45-.48-.89-.33-.15.15-.3.26-.45.33-.15.08-.3.19-.45.33-.37.08-.73.13-1.06.17-.33.04-.69.09-1.06.17h-1.34c-.22-.15-.47-.32-.73-.5-.26-.18-.58-.39-.95-.61-.52-.07-1.1-.13-1.73-.17-.63-.04-1.25-.02-1.84.05-1.42.3-2.53.86-3.35,1.68-.45-.15-.82-.22-1.12-.22-.22-.15-.45-.18-.67-.11-.22.08-.45.11-.67.11-.45.22-.86.49-1.23.78-.37.3-.67.71-.89,1.23-.08.3-.17.61-.28.95-.11.33-.17.69-.17,1.06-.07.75-.13,1.51-.17,2.29-.04.78-.09,1.58-.17,2.4,0,.45-.02.91-.06,1.4-.04.49-.02.95.06,1.4,0,.08.04.22.11.45.07.22.15.41.22.56,1.04-.15,2.01-.24,2.91-.28.89-.04,1.75.02,2.57.17.82.22,1.66.37,2.52.45.86.07,1.66.22,2.4.45.37.07.82.04,1.34-.11.45-.37.88-.74,1.29-1.12.41-.37.84-.74,1.29-1.12.37-.07.73-.13,1.06-.17.34-.04.65-.09.95-.17.45-.37.89-.76,1.34-1.17.45-.41.86-.8,1.23-1.17.15-.52.28-1.01.39-1.45.11-.45.2-.93.28-1.45.15-.45.32-.88.5-1.29.19-.41.28-.88.28-1.4Z"/>
      <path class="st1" d="M193.9,334.86c-.08.75-.13,1.51-.17,2.29-.04.78-.13,1.55-.28,2.29-.07.75-.11,1.55-.11,2.4s-.15,1.73-.45,2.63c-.15.22-.34.47-.56.73-.22.26-.45.58-.67.95,0,.3.02.56.06.78.04.22.09.49.17.78-.15.37-.37.69-.67.95-.3.26-.6.47-.89.62-.75.22-1.44.45-2.07.67-.63.22-1.29.41-1.96.56-1.04.15-2.12.17-3.24.06s-2.24-.13-3.35-.06c-.97,0-1.99.02-3.07.06-1.08.04-2.18.06-3.3.06h-6.26c-.3.22-.61.3-.95.22-.33-.07-.65-.04-.95.11-.3-.15-.63-.17-1.01-.06-.37.11-.75.09-1.12-.06-.3.08-.58.13-.84.17-.26.04-.58.09-.95.17-.3-.07-.56-.17-.78-.28-.22-.11-.49-.06-.78.17.15.22.32.47.5.73.19.26.32.58.39.95.22.3.41.6.56.89.15.3.3.63.45,1.01.15.3.26.62.34.95.07.33.15.65.22.95.37.37.78.75,1.23,1.12.45.37.89.75,1.34,1.12.37.08.76.15,1.17.22.41.08.8.15,1.17.22.45.08.89.15,1.34.22.45.07.93.07,1.45,0,.52-.15,1.01-.13,1.45.06.45.19.93.32,1.45.39.67-.07,1.36-.15,2.07-.22.71-.07,1.4-.15,2.07-.22.3-.22.61-.43.95-.62.34-.19.65-.39.95-.62.97-.22,1.94-.18,2.91.11.22.37.5.75.84,1.12.33.37.65.78.95,1.23.45.67.89,1.32,1.34,1.96.45.63.74,1.36.89,2.18.15.37.37.75.67,1.12.3.37.52.71.67,1.01.07.38.06.71-.06,1.01-.11.3-.21.63-.28,1.01-.3.3-.67.56-1.12.78-.08,0-.15.08-.22.22-.08.15-.19.26-.34.33-.45.3-.89.6-1.34.89-.45.3-.86.6-1.23.89-1.04.89-2.12,1.34-3.24,1.34-.45,0-.78.04-1.01.11-.37.07-.75.22-1.12.45-.37.22-.78.41-1.23.56-.37,0-.75.06-1.12.17-.37.11-.75.2-1.12.28-.22,0-.49-.02-.78-.06-.3-.04-.6-.05-.89-.05-.67.07-1.34.04-2.01-.11-.67-.15-1.34-.22-2.01-.22-.22-.08-.45-.15-.67-.22s-.45-.11-.67-.11c-1.27.08-2.46-.13-3.58-.61-1.12-.48-2.24-.99-3.35-1.51-.89-.22-1.53-.63-1.9-1.23-.52-.59-1.1-1.1-1.73-1.51-.63-.41-1.32-.76-2.07-1.06-.45-.15-.89-.35-1.34-.62-.45-.26-.93-.54-1.45-.84-.08-.3-.19-.6-.34-.89-.15-.3-.3-.6-.45-.89-.15-.22-.35-.45-.61-.67-.26-.22-.5-.45-.73-.67-.22-.22-.41-.48-.56-.78-.37-1.27-.75-2.52-1.12-3.74-.37-1.23-.86-2.44-1.45-3.63.07-.52.13-1.06.17-1.62.04-.56-.02-1.17-.17-1.84-.07-.15-.11-.34-.11-.56v-.56c0-.37.02-.69.06-.95.04-.26.02-.5-.06-.73-.07-.6-.15-1.19-.22-1.79-.08-.6-.04-1.15.11-1.68.15-.6.3-1.19.45-1.79.15-.6.34-1.23.56-1.9-.08-.15-.11-.37-.11-.67s-.04-.6-.11-.89c.15-.82.3-1.64.45-2.46.15-.82.33-1.6.56-2.35.22-.45.46-.88.73-1.29.26-.41.54-.84.84-1.29.52-.89.93-1.75,1.23-2.57.89-.45,1.43-.73,1.62-.84.19-.11.35-.28.5-.5.15-.22.63-.67,1.45-1.34-.08-.22.11-.56.56-1.01.45-.45.6-.82.45-1.12.67-1.27,1.64-2.27,2.91-3.02.45-.3.88-.61,1.29-.95.41-.34.76-.65,1.06-.95.37-.22.73-.32,1.06-.28.34.04.65.06.95.06.22-.07.46-.13.73-.17.26-.04.54-.09.84-.17.15-.07.33-.15.56-.22s.41-.19.56-.34c.15-.07.3-.15.45-.22.15-.07.3-.11.45-.11.67-.07,1.3-.26,1.9-.56.6-.3,1.15-.6,1.68-.89,1.12.45,2.27.6,3.46.45.74-.07,1.47-.04,2.18.11.71.15,1.36.33,1.96.56l1.56-.45c.6.08,1.15.26,1.68.56.52.3,1.04.6,1.56.89h1.01c.07.07.15.13.22.17.07.04.15.09.22.17.82.75,1.6,1.44,2.35,2.07.74.63,1.53,1.29,2.35,1.96,1.12.75,1.83,1.64,2.12,2.68.3.45.56.78.78,1.01.89.75,1.68,1.75,2.35,3.02,0,.15.02.35.06.61.04.26.06.5.06.73-.08.37,0,.75.22,1.12.22.37.37.78.45,1.23ZM179.7,338.55v-2.79c0-.37-.04-.6-.11-.67-.07-.22-.17-.45-.28-.67-.11-.22-.21-.37-.28-.45v-1.9l-.34-.33c-.3,0-.67-.07-1.12-.22-.15-.67-.34-1.19-.56-1.57-.22-.3-.52-.48-.89-.56-.37-.07-.78-.19-1.23-.34-.97.3-2.01.56-3.13.78s-2.2.52-3.24.89c-.52.07-1.01.11-1.45.11s-.89.04-1.34.11c-.75.3-1.4.77-1.96,1.4-.56.63-1.1,1.25-1.62,1.84-.3.37-.56.78-.78,1.23-.22.45-.49.86-.78,1.23-.08.08-.11.3-.11.67.22.6.56.97,1.01,1.12.45.07.89.19,1.34.33.45.15.93.3,1.45.45.22-.07.43-.11.61-.11s.39-.04.61-.11c.89-.37,1.64-.41,2.24-.11.6.08,1.14.08,1.62,0,.48-.07.99-.15,1.51-.22.45.22.91.37,1.4.45.48.08.95.19,1.4.34.97.3,1.9.45,2.79.45s1.79-.11,2.68-.34c.37-.37.56-.71.56-1.01Z"/>
      <path class="st1" d="M237.27,366.27c-.37.75-.71,1.49-1.01,2.24-.3.75-.63,1.49-1.01,2.24l-2.35,2.24c-1.42,1.56-3.09,2.5-5.03,2.79-.97.15-1.96.2-2.96.17s-2.03-.21-3.07-.5c-.6-.15-1.21-.36-1.84-.62-.63-.26-1.25-.54-1.84-.84-.45-.22-.93-.39-1.45-.5-.52-.11-1.08-.2-1.68-.28-.22-.15-.49-.32-.78-.5-.3-.19-.63-.39-1.01-.62-.52-.89-1.14-1.71-1.84-2.46-.71-.74-1.25-1.68-1.62-2.79,0-.89-.04-1.51-.11-1.84-.08-.34-.3-1.02-.67-2.07v-7.38c0-.6-.02-1.17-.06-1.73-.04-.56-.13-1.1-.28-1.62-.08-.52-.09-.97-.06-1.34.04-.37.09-.82.17-1.34.22-.89.22-1.83,0-2.79.22-.89.48-1.79.78-2.68,0-.45-.11-1.08-.33-1.9-.22-.82-.49-1.6-.78-2.35-.37,0-.75-.04-1.12-.11-.37-.07-.78-.15-1.23-.22-.45.15-.91.3-1.4.45-.49.15-1.02.3-1.62.45-.22.15-.56.22-1.01.22-.08,0-.21-.09-.39-.28-.19-.19-.28-.32-.28-.39-.08-.22-.11-.45-.11-.67v-.67c-.08-.6-.11-1.23-.11-1.9v-1.9c0-.6-.04-1.17-.11-1.73-.07-.56-.19-1.1-.33-1.62.07-.37.15-.73.22-1.06.07-.33.15-.65.22-.95v-2.12c0-.6.09-1.12.28-1.57.19-.45.58-.86,1.17-1.23.45-.15.95-.22,1.51-.22h1.84c.6.08,1.21.06,1.84-.06.63-.11,1.21-.43,1.73-.95.15-.15.35-.22.61-.22h.61c1.49.07,2.79-.52,3.91-1.79.07-.45.3-1.08.67-1.9-.22-.52-.41-1.1-.56-1.73-.15-.63-.34-1.25-.56-1.84.15-.22.3-.45.45-.67.15-.22.26-.48.33-.78.15-.37.15-.73,0-1.06-.15-.33-.19-.61-.11-.84-.15-.37-.22-.63-.22-.78s-.08-.41-.22-.78c.07-.15.15-.32.22-.5.07-.18.15-.35.22-.5.07-.3.15-.54.22-.73.07-.19.15-.43.22-.73h1.23c.37.07.76.13,1.17.17.41.04.8.02,1.17-.06.15,0,.33.02.56.06.22.04.45.06.67.06,1.27.15,2.51.34,3.74.56,1.23.22,2.44.34,3.63.34.15,0,.32.04.5.11.19.08.32.15.39.22.3.15.56.33.78.56-.08.3-.19.58-.34.84-.15.26-.26.5-.33.73-.08.3-.13.63-.17,1.01-.04.37-.09.75-.17,1.12-.08.52-.15,1.04-.22,1.57-.08.52-.19,1.12-.34,1.79.07.08.11.26.11.56s.04.56.11.78c-.08.52-.17,1.01-.28,1.45s-.21.97-.28,1.56c.97.75,2.03,1.38,3.19,1.9,1.15.52,2.55,1.01,4.19,1.45.82.52,1.3,1.38,1.45,2.57,0,1.72-.11,3.43-.33,5.14-.08.67-.15,1.34-.22,2.01-.08.67-.08,1.34,0,2.01-.97.6-2.12.89-3.47.89-.22,0-.45.04-.67.11-.22.08-.41.11-.56.11-1.19.07-2.11.19-2.74.33-.63.15-1.62.52-2.96,1.12-.22.3-.34.71-.34,1.23-.07.45-.13.89-.17,1.34-.04.45-.02.93.06,1.45,0,.08-.07.15-.22.22-.45.89-.78,1.57-1.01,2.01-.22.45-.35.89-.39,1.34-.04.45-.06,1.19-.06,2.24v5.37c0,.37.04.6.11.67.07.67.41,1.23,1.01,1.68.3.07.58.15.84.22.26.08.46.26.61.56.67.89,1.43,1.36,2.29,1.4.86.04,1.77-.09,2.74-.39.3-.15.6-.3.89-.45.3-.15.6-.26.89-.33.6.15.97.49,1.12,1.01.15.52.41.97.78,1.34.37.37.69.78.95,1.23.26.45.54.89.84,1.34.15.45.34.95.56,1.51.22.56.41,1.17.56,1.84Z"/>
      <path class="st1" d="M315.84,319.32c0,.6-.26.97-.78,1.12-.89.08-1.73.35-2.51.84-.78.49-1.58.84-2.4,1.06-.97-.07-1.9-.04-2.79.11-.89.15-1.86.11-2.91-.11-.15.15-.34.3-.56.45-.22.15-.45.3-.67.45-.3,0-.63.04-1.01.11-.37.08-.75.11-1.12.11h-2.79c-.6,0-1.19.02-1.79.06-.6.04-1.19.02-1.79-.06-.67,0-1.27.13-1.79.39-.52.26-1.08.39-1.68.39-.3,0-.56.02-.78.06-.22.04-.45.09-.67.17-.52-.15-1.02-.28-1.51-.39-.49-.11-.99.09-1.51.61-.37,1.27-.69,2.57-.95,3.91-.26,1.34-.47,2.65-.61,3.91-.22,1.34-.22,2.61,0,3.8.07.15.13.3.17.45.04.15.09.3.17.45h3.35c.52.22,1.06.49,1.62.78.56.3,1.14.63,1.73,1.01.15.07.35.13.61.17.26.04.54.09.84.17.22.08.48.15.78.22.3.08.6.19.89.34.52,0,1.01-.15,1.45-.45.45-.3.93-.48,1.45-.56h.56c.37,0,.73.04,1.06.11.33.07.65.07.95,0,.97-.22,1.94-.24,2.91-.06.97.19,1.9.28,2.79.28.6,0,1.17.11,1.73.34.56.22,1.1.49,1.62.78.3,2.53.43,5.09.39,7.66-.04,2.57-.09,5.12-.17,7.66,0,.3-.11.49-.34.56-.22.08-.45.08-.67,0-.15-.07-.32-.15-.5-.22-.19-.07-.43-.15-.73-.22h-6.48c-.67-.07-1.29-.07-1.84,0-.56.08-1.14.08-1.73,0-.6-.07-1.19-.13-1.79-.17-.6-.04-1.23-.09-1.9-.17-.52-.07-1.08-.11-1.68-.11s-1.23-.04-1.9-.11c-.37,0-.77-.07-1.17-.22-.41-.15-.8-.26-1.17-.34-.52.08-.91.26-1.17.56-.26.3-.58.6-.95.89-.08.15-.17.35-.28.62-.11.26-.24.5-.39.73.07.22.11.48.11.78.37.45.61.95.73,1.51s.17,1.14.17,1.73c0,.89.06,1.79.17,2.68.11.89.09,1.79-.06,2.68,0,.75.02,1.49.06,2.24.04.75.2,1.45.5,2.12.07.15.11.41.11.78-.45,1.04-1.04,2.05-1.79,3.02-.75.52-1.47.88-2.18,1.06-.71.18-1.47.46-2.29.84-.3-.08-.61-.11-.95-.11h-1.06c-.3.07-.78.33-1.45.78h-3.8c-.6,0-1.21.02-1.84.06-.63.04-1.32.06-2.07.06s-1.27-.33-1.56-1.01c-.08-.3-.11-.63-.11-1.01s-.04-.78-.11-1.23c-.22-.37-.41-.73-.56-1.06-.15-.34-.3-.65-.45-.95-.08-.45-.13-.89-.17-1.34-.04-.45-.09-.86-.17-1.23.22-.67.43-1.3.61-1.9.19-.6.39-1.23.61-1.9-.3-1.71-.49-3.48-.56-5.31-.07-1.83.04-3.67.34-5.53,0-.37-.06-.78-.17-1.23-.11-.45-.06-.93.17-1.45.45-.82.45-1.6,0-2.35-.08-.52-.13-1.04-.17-1.57-.04-.52.02-1.04.17-1.57.15-.22.22-.48.22-.78v-.89c.07-.37.04-.78-.11-1.23-.15-.45-.19-.89-.11-1.34.15-.37.24-.76.28-1.17.04-.41.06-.84.06-1.29,0-.52.04-1.04.11-1.57.07-.52.19-1.01.34-1.45-.08-.52-.13-.99-.17-1.4-.04-.41-.09-.84-.17-1.29.37-.82.58-1.66.61-2.52.04-.86.06-1.73.06-2.63v-1.79c0-.59.04-1.15.11-1.68.07-.6.13-1.17.17-1.73.04-.56.06-1.1.06-1.62,0-.15-.02-.32-.06-.5-.04-.19-.02-.35.06-.5.3-.6.43-1.17.39-1.73-.04-.56-.02-1.1.06-1.62,0-.45.02-.91.06-1.4.04-.48.09-.95.17-1.4-.08-.37-.19-.78-.34-1.23-.15-.45-.26-.82-.34-1.12.07-.37.17-.74.28-1.12.11-.37.17-.74.17-1.12.07-.89.67-1.49,1.79-1.79,1.34-.45,2.76-.78,4.25-1.01.52,0,.93-.15,1.23-.45.3-.15.63-.22,1.01-.22.45.07.91.07,1.4,0,.48-.07.99-.15,1.51-.22.6-.37,1.27-.56,2.01-.56,1.42-.07,2.83-.26,4.25-.56,1.42-.3,2.83-.48,4.25-.56.74-.07,1.45-.13,2.12-.17.67-.04,1.38.06,2.12.28.6.08,1.19.13,1.79.17.6.04,1.19.06,1.79.06.3,0,.6-.02.89-.06.3-.04.6-.06.89-.06,1.04-.07,1.83-.09,2.35-.06.52.04,1.04.09,1.56.17.52.07,1.3.22,2.35.45.52.08,1.02.13,1.51.17.48.04.95.13,1.4.28.82.37,1.71.63,2.68.78.37.08.67.21.89.39.22.19.41.35.56.5.3,1.19.3,2.35,0,3.46.22.67.45,1.45.67,2.35,0,.08-.02.24-.06.5-.04.26-.06.47-.06.61,0,.37.04.6.11.67.15.3.3.61.45.95.15.34.26.65.34.95.15.22.22.45.22.67v.67Z"/>
      <path class="st1" d="M341.66,314.63c.22.52.3,1.06.22,1.62-.08.56-.19,1.1-.34,1.62-.08.45-.22.88-.45,1.29-.22.41-.41.8-.56,1.17-.3.45-.61.86-.95,1.23-.34.37-.65.75-.95,1.12-.22.08-.41.21-.56.39-.15.19-.33.35-.56.5-.52.37-1.34.73-2.46,1.06-1.12.33-2.01.5-2.68.5-.37,0-.67-.07-.89-.22-.45,0-.89-.02-1.34-.06-.45-.04-.86-.06-1.23-.06-.22-.15-.47-.3-.73-.45-.26-.15-.47-.3-.61-.45-.37-.15-.77-.22-1.17-.22h-1.17c-.3-.22-.65-.43-1.06-.61-.41-.18-.8-.35-1.17-.5l-.67-2.01c.07-.6.15-1.25.22-1.96.07-.71,0-1.43-.22-2.18-.22-.15-.22-.33,0-.56.22-.52.22-1.04,0-1.56-.22-.52-.22-1.04,0-1.56.07-.15.11-.37.11-.67-.22-.45-.22-.88,0-1.29.22-.41.41-.76.56-1.06-.08-.22-.11-.46-.11-.73v-.61c.07-.07.13-.17.17-.28.04-.11.13-.21.28-.28.6-.15,1.1-.43,1.51-.84.41-.41.88-.73,1.4-.95.52-.45,1.1-.82,1.73-1.12.63-.3,1.25-.59,1.84-.89h1.56c.45,0,.89.07,1.34.22.22.08.48.11.78.11h.89c1.04-.15,1.86.26,2.46,1.23.15.37.41.6.78.67.37.08.71.19,1.01.33.74.67,1.23,1.53,1.45,2.57.15.45.32.89.5,1.34.19.45.32.89.39,1.34.15.45.28.91.39,1.4.11.49.2.95.28,1.4ZM340.99,340.34c-.15.45-.22.95-.22,1.51v1.73c.07.52.07,1.06,0,1.62-.07.56-.11,1.1-.11,1.62l-.78,1.12c.37.37.6.78.67,1.23.07.45.11.93.11,1.45v1.62c0,.56-.04,1.14-.11,1.73-.08.52-.22,1.08-.45,1.68-.22.6-.41,1.23-.56,1.9,0,.75-.02,1.62-.06,2.63-.04,1.01-.02,1.99.06,2.96.07,1.42,0,2.85-.22,4.3-.22,1.45-.67,2.81-1.34,4.08,0,.6.07,1.17.22,1.73.15.56.3,1.13.45,1.73,0,.07-.04.17-.11.28-.08.11-.11.24-.11.39-.37.52-.82.97-1.34,1.34-.08,0-.15.04-.22.11h-.45c-.82,0-1.66.06-2.52.17-.86.11-1.81.06-2.85-.17-.3-.15-.61-.33-.95-.56-.34-.22-.69-.41-1.06-.56-.3,0-.65-.02-1.06-.06-.41-.04-.8-.09-1.17-.17-.6-.67-1.19-1.38-1.79-2.12-.22-.15-.49-.26-.78-.33-.3-.07-.6-.18-.89-.33-.52-.37-.71-.97-.56-1.79.15-.82.34-1.53.56-2.12.22-.97.19-1.9-.11-2.79l-.45-1.56c0-.6-.04-1.15-.11-1.68-.07-.52-.07-1.04,0-1.56.07-.74.09-1.45.06-2.12-.04-.67-.06-1.38-.06-2.12.07-1.04.11-2.07.11-3.07v-2.96c0-.37.04-.6.11-.67.37-.6.56-1.17.56-1.73v-1.73c-.08-.59-.06-1.21.06-1.84.11-.63.09-1.21-.06-1.73v-1.96c0-.63.04-1.29.11-1.96.07-.37.13-.76.17-1.17.04-.41-.02-.88-.17-1.4.67-.3,1.25-.52,1.73-.67.48-.15.95-.22,1.4-.22h.95c.34,0,.65-.04.95-.11.74-.15,1.38-.3,1.9-.45.37.07.69.21.95.39.26.19.54.35.84.5.52,0,1.04-.11,1.56-.33.52-.07.99-.04,1.4.11.41.15.73.52.95,1.12.07.08.13.15.17.22.04.07.09.15.17.22l.78.45c.52.08.97-.02,1.34-.28.37-.26.74-.43,1.12-.5.45,0,.71.19.78.56.22.52.37,1.3.45,2.35Z"/>
      <path class="st1" d="M392.86,357.89c0,.6.02,1.21.06,1.84.04.63-.02,1.25-.17,1.84-.15.38-.19.71-.11,1.01.15.38.17.77.06,1.17-.11.41-.13.8-.06,1.17.15.52.19,1.1.11,1.73-.07.63-.07,1.25,0,1.84-.3.52-.78.78-1.45.78-.75,0-1.55.04-2.4.11-.86.08-1.7.26-2.52.56-.45.15-.93.22-1.45.22h-1.56c-.45-.3-.78-.56-1.01-.78-.89.3-1.64-.04-2.24-1.01-.3-.45-.54-.93-.73-1.45-.19-.52-.28-1.08-.28-1.68.07-.6.07-1.19,0-1.79-.07-.6-.07-1.23,0-1.9.15-1.12,0-2.2-.45-3.24-.07-.22-.15-.45-.22-.67-.08-.22-.11-.45-.11-.67,0-.82-.04-1.66-.11-2.52-.07-.86-.22-1.66-.45-2.4-.08-.37-.13-.73-.17-1.06-.04-.34-.06-.65-.06-.95-.22-.89-.71-1.6-1.45-2.12-.08-.6-.15-1.13-.22-1.62-.08-.48-.19-1.02-.33-1.62-.15-.15-.45-.37-.89-.67-.3-.22-.65-.41-1.06-.56-.41-.15-.8-.34-1.17-.56-.15-.15-.32-.35-.5-.62-.19-.26-.39-.5-.62-.73h-.67c-.3.08-.56.13-.78.17-.22.04-.52.02-.89-.06-.15-.07-.33-.09-.56-.05-.22.04-.41.05-.56.05-.37.52-.75,1.08-1.12,1.68-.3.22-.58.43-.84.61-.26.19-.47.35-.61.5-.22.22-.34.45-.34.67l-.78,2.35c.15.45.15.88,0,1.29-.15.41-.11.84.11,1.29.07.22.07.45,0,.67-.08.22-.15.41-.22.56-.22.3-.26.52-.11.67.15.15.26.33.33.56.07.07.15.22.22.45v2.57c0,.82-.15,1.64-.45,2.46.07.3.13.58.17.84.04.26.09.58.17.95-.08.45-.17.95-.28,1.51-.11.56-.13,1.14-.06,1.73.07.38.09.78.06,1.23-.04.45-.13.89-.28,1.34-.08.22-.08.45,0,.67.22.89.22,1.68,0,2.35-.22.67-.63,1.38-1.23,2.12-.07.08-.22.15-.45.22-.22.08-.41.15-.56.22-.15.15-.3.24-.45.28-.15.04-.3.09-.45.17-.3,0-.6-.02-.89-.06-.3-.04-.56-.05-.78-.05-.3.07-.54.17-.73.28-.19.11-.47.28-.84.5-.97-.15-1.96-.33-2.96-.56-1.01-.22-1.99-.15-2.96.22-.45-.07-.82-.26-1.12-.56-.3-.3-.56-.63-.78-1.01-.3-.45-.49-.95-.56-1.51s-.19-1.1-.33-1.62c.15-1.27.22-2.14.22-2.63s-.11-1.58-.33-3.3c.22-1.19.37-2.4.45-3.63.07-1.23.11-2.44.11-3.63v-4.81c0-1.64.04-3.28.11-4.92,0-.45.04-.89.11-1.34.07-.45.15-.86.22-1.23.15-.82.3-1.6.45-2.35.15-.74.33-1.45.56-2.12.15-.52.41-.97.78-1.34.37-.37.63-.82.78-1.34.15-1.04.46-1.96.95-2.74.48-.78.99-1.55,1.51-2.29.37-1.04,1.04-1.45,2.01-1.23.15,0,.22-.04.22-.11.22-.22.28-.52.17-.89-.11-.37-.02-.71.28-1.01.67-.6,1.45-1.06,2.35-1.4s1.71-.65,2.46-.95c.67,0,1.12.08,1.34.22.97.3,1.9.3,2.79,0,.67-.15,1.27.04,1.79.56.74.15,1.45.3,2.12.45.67.15,1.38.3,2.12.45.3-.07.6-.13.89-.17.3-.04.6-.09.89-.17.74.3,1.36.73,1.84,1.29.48.56.99,1.14,1.51,1.73.37.3.78.41,1.23.34s.93-.04,1.45.11c.37.37.76.78,1.17,1.23.41.45.84.86,1.29,1.23.07.3.17.58.28.84.11.26.2.54.28.84.37.08.63.26.78.56.15.3.26.56.34.78.74.3,1.49.52,2.24.67.37.37.71.8,1.01,1.29.3.48.78.73,1.45.73.15.75.3,1.42.45,2.01.15.6.3,1.19.45,1.79.15,1.12.41,2.09.78,2.91.3.6.56,1.21.78,1.84s.33,1.32.33,2.07c.07.45.24.86.5,1.23.26.37.46.78.61,1.23-.08.3-.13.6-.17.89-.04.3-.06.63-.06,1.01,0,.3.02.56.06.78.04.22.09.52.17.89,0,.15.02.35.06.62.04.26.02.47-.06.61-.15.52-.19,1.04-.11,1.57s.11,1.01.11,1.45Z"/>
      <path class="st1" d="M446.29,324.36c-.37,1.34-.6,2.7-.67,4.08-.08,1.38-.15,2.74-.22,4.08-.08,1.34-.11,2.7-.11,4.08v4.08c0,1.12-.08,2.24-.22,3.35-.15,1.12-.26,2.27-.33,3.46,0,.3-.02.63-.06,1.01-.04.38-.06.75-.06,1.12,0,1.04-.15,2.01-.45,2.91-.22.97-.33,1.94-.33,2.91,0,.52-.04,1.08-.11,1.68-.08.6-.22,1.19-.45,1.79-.08.37-.11.93-.11,1.68-.08.6-.22,1.19-.45,1.79-.15.52-.3,1.03-.45,1.51-.15.49-.3,1.03-.45,1.62-.3.45-.58.91-.84,1.4-.26.48-.54.95-.84,1.4-.67.37-1.23.86-1.68,1.45-.75.6-1.47,1.23-2.18,1.9-.71.67-1.4,1.3-2.07,1.9-.89.75-1.79,1.12-2.68,1.12-.08,0-.17.04-.28.11-.11.07-.24.11-.39.11-1.42.15-2.57.59-3.46,1.34-.08.07-.17.13-.28.17-.11.04-.24.13-.39.28-.97.15-1.96.07-2.96-.22-1.01-.3-1.92-.67-2.74-1.12h-1.79c-.3,0-.6-.02-.89-.06-.3-.04-.63-.09-1.01-.17-2.01-.45-3.95-1.3-5.81-2.57-.22-.22-.48-.37-.78-.45-.3-.07-.63-.15-1.01-.22-.45-.07-.89-.18-1.34-.33-.45-.15-.89-.3-1.34-.45-.37-.22-.67-.54-.89-.95-.22-.41-.45-.76-.67-1.06-.37-.74-.71-1.43-1.01-2.07-.3-.63-.63-1.32-1.01-2.07-.3-.6-.63-1.21-1.01-1.84-.38-.63-.75-1.21-1.12-1.73,0-.07.04-.11.11-.11s.11-.04.11-.11l-.22-.22c0,.07-.02.13-.05.17-.04.04-.06.09-.06.17-.07-.07-.17-.13-.28-.17-.11-.04-.21-.09-.28-.17-.3-.15-.52-.39-.67-.73-.15-.34-.3-.65-.45-.95.22-.45.33-1.04.33-1.79.15-.97.11-1.83-.11-2.57-.3-1.12-.43-2.24-.39-3.35.04-1.12.09-2.27.17-3.46,0-.37.15-.86.45-1.45.52-1.27.82-2.38.89-3.35.74-1.04,1.34-2.16,1.79-3.35.45-1.19.97-2.31,1.56-3.35.37-.15.69-.3.95-.45.26-.15.54-.26.84-.34.15-.15.26-.33.34-.56.07-.22.22-.41.45-.56.22-.15.48-.28.78-.39.3-.11.63-.2,1.01-.28.15-.22.28-.45.39-.67.11-.22.24-.45.39-.67.22-.22.37-.34.45-.34,1.71-.6,3.5-1.04,5.37-1.34.3-.07.62-.13.95-.17.34-.04.65-.09.95-.17.97-.3,1.94-.41,2.91-.33.97.07,1.94.07,2.91,0,.22,0,.46.04.73.11.26.08.5.15.73.22.22,0,.52.08.89.22.37.15.6.15.67,0,.74-.15,1.45.08,2.12.67.15.08.46.09.95.06.48-.04.76-.06.84-.06.67-.15,1.06-.46,1.17-.95.11-.48.09-.73-.06-.73l-.22-.22c.07-.97.06-1.94-.06-2.91-.11-.97-.13-1.94-.05-2.91.07-.37.11-.76.11-1.17v-1.17c-.08-.37-.08-.73,0-1.06.07-.34.11-.69.11-1.06s.02-.73.06-1.06c.04-.33-.02-.61-.17-.84-.22-.6-.32-1.19-.28-1.79.04-.6.13-1.19.28-1.79.22-.82.39-1.64.5-2.46.11-.82.09-1.71-.06-2.68v-.56c.3-.74.46-1.49.5-2.23.04-.74.09-1.42.17-2.01.37-.52.84-.88,1.4-1.06.56-.19.99-.43,1.29-.73,1.19-.07,2.31-.07,3.35,0,1.04.07,2.08-.04,3.13-.34.52.22,1.02.39,1.51.5.48.11.91.21,1.29.28.82.6,1.23,1.38,1.23,2.35v1.23c0,.45-.04.89-.11,1.34.07.3.19.56.34.78.15.22.26.52.33.89-.08.15-.13.36-.17.62-.04.26-.1.54-.17.84.07.3.15.67.22,1.12.07.45.15.86.22,1.23,0,1.19.02,2.35.05,3.46.04,1.12.02,2.24-.05,3.35,0,1.19.02,1.98.05,2.35.04.37.21,1.12.5,2.24ZM429.96,352.52c-.22-.6-.39-1.17-.5-1.73-.11-.56-.24-1.06-.39-1.51-.22-.52-.5-1.01-.84-1.45-.33-.45-.61-.93-.84-1.45-.75-.37-1.3-.74-1.68-1.12-.37-.15-.73-.26-1.06-.34-.34-.07-.69-.15-1.06-.22-.3-.15-.58-.28-.84-.39-.26-.11-.54-.2-.84-.28-.52.22-1.03.45-1.51.67-.49.22-.95.45-1.4.67-1.19.52-2.01,1.49-2.46,2.91-.08.3-.11.6-.11.89s-.04.63-.11,1.01c-.07.22-.21.45-.39.67-.19.22-.36.52-.5.89v2.01c.15.97.43,1.88.84,2.74.41.86,1.1,1.58,2.07,2.18.22.08.43.21.62.39.19.19.43.35.73.5.45.45.89.67,1.34.67,1.19-.15,2.35-.28,3.46-.39,1.12-.11,2.2-.39,3.24-.84.45-.37.78-.74,1.01-1.12.22-.3.41-.58.56-.84.15-.26.33-.54.56-.84v-2.91c0-.3.04-.56.11-.78Z"/>
      <path class="st1" d="M500.94,334.86c-.08.75-.13,1.51-.17,2.29-.04.78-.13,1.55-.28,2.29-.08.75-.11,1.55-.11,2.4s-.15,1.73-.45,2.63c-.15.22-.33.47-.56.73-.22.26-.45.58-.67.95,0,.3.02.56.06.78.04.22.09.49.17.78-.15.37-.37.69-.67.95-.3.26-.6.47-.89.62-.75.22-1.44.45-2.07.67-.63.22-1.29.41-1.96.56-1.04.15-2.12.17-3.24.06-1.12-.11-2.24-.13-3.35-.06-.97,0-1.99.02-3.07.06-1.08.04-2.18.06-3.3.06h-6.26c-.3.22-.61.3-.95.22-.34-.07-.65-.04-.95.11-.3-.15-.63-.17-1.01-.06-.37.11-.75.09-1.12-.06-.3.08-.58.13-.84.17-.26.04-.58.09-.95.17-.3-.07-.56-.17-.78-.28s-.49-.06-.78.17c.15.22.32.47.5.73.18.26.32.58.39.95.22.3.41.6.56.89.15.3.3.63.45,1.01.15.3.26.62.34.95.07.33.15.65.22.95.37.37.78.75,1.23,1.12.45.37.89.75,1.34,1.12.37.08.76.15,1.17.22.41.08.8.15,1.17.22.45.08.89.15,1.34.22s.93.07,1.45,0c.52-.15,1.01-.13,1.45.06.45.19.93.32,1.45.39.67-.07,1.36-.15,2.07-.22.71-.07,1.4-.15,2.07-.22.3-.22.61-.43.95-.62.34-.19.65-.39.95-.62.97-.22,1.94-.18,2.91.11.22.37.5.75.84,1.12.33.37.65.78.95,1.23.45.67.89,1.32,1.34,1.96.45.63.74,1.36.89,2.18.15.37.37.75.67,1.12.3.37.52.71.67,1.01.07.38.06.71-.06,1.01s-.21.63-.28,1.01c-.3.3-.67.56-1.12.78-.08,0-.15.08-.22.22-.08.15-.19.26-.34.33-.45.3-.89.6-1.34.89-.45.3-.86.6-1.23.89-1.04.89-2.12,1.34-3.24,1.34-.45,0-.78.04-1.01.11-.37.07-.75.22-1.12.45-.37.22-.78.41-1.23.56-.37,0-.75.06-1.12.17-.37.11-.75.2-1.12.28-.22,0-.49-.02-.78-.06-.3-.04-.6-.05-.89-.05-.67.07-1.34.04-2.01-.11-.67-.15-1.34-.22-2.01-.22-.22-.08-.45-.15-.67-.22-.22-.07-.45-.11-.67-.11-1.27.08-2.46-.13-3.58-.61-1.12-.48-2.24-.99-3.35-1.51-.89-.22-1.53-.63-1.9-1.23-.52-.59-1.1-1.1-1.73-1.51-.63-.41-1.32-.76-2.07-1.06-.45-.15-.89-.35-1.34-.62-.45-.26-.93-.54-1.45-.84-.08-.3-.19-.6-.34-.89-.15-.3-.3-.6-.45-.89-.15-.22-.35-.45-.62-.67-.26-.22-.5-.45-.73-.67-.22-.22-.41-.48-.56-.78-.37-1.27-.75-2.52-1.12-3.74-.37-1.23-.86-2.44-1.45-3.63.07-.52.13-1.06.17-1.62.04-.56-.02-1.17-.17-1.84-.08-.15-.11-.34-.11-.56v-.56c0-.37.02-.69.06-.95.04-.26.02-.5-.06-.73-.08-.6-.15-1.19-.22-1.79-.07-.6-.04-1.15.11-1.68.15-.6.3-1.19.45-1.79.15-.6.34-1.23.56-1.9-.08-.15-.11-.37-.11-.67s-.04-.6-.11-.89c.15-.82.3-1.64.45-2.46.15-.82.33-1.6.56-2.35.22-.45.46-.88.73-1.29.26-.41.54-.84.84-1.29.52-.89.93-1.75,1.23-2.57.89-.45,1.43-.73,1.62-.84.18-.11.35-.28.5-.5.15-.22.63-.67,1.45-1.34-.07-.22.11-.56.56-1.01.45-.45.6-.82.45-1.12.67-1.27,1.64-2.27,2.91-3.02.45-.3.88-.61,1.29-.95.41-.34.76-.65,1.06-.95.37-.22.73-.32,1.06-.28.33.04.65.06.95.06.22-.07.46-.13.73-.17.26-.04.54-.09.84-.17.15-.07.33-.15.56-.22s.41-.19.56-.34c.15-.07.3-.15.45-.22.15-.07.3-.11.45-.11.67-.07,1.3-.26,1.9-.56.6-.3,1.15-.6,1.68-.89,1.12.45,2.27.6,3.46.45.74-.07,1.47-.04,2.18.11.71.15,1.36.33,1.96.56l1.57-.45c.6.08,1.15.26,1.68.56.52.3,1.04.6,1.57.89h1.01c.07.07.15.13.22.17.07.04.15.09.22.17.82.75,1.6,1.44,2.35,2.07.74.63,1.53,1.29,2.35,1.96,1.12.75,1.83,1.64,2.12,2.68.3.45.56.78.78,1.01.89.75,1.68,1.75,2.35,3.02,0,.15.02.35.06.61.04.26.06.5.06.73-.07.37,0,.75.22,1.12s.37.78.45,1.23ZM486.75,338.55v-2.79c0-.37-.04-.6-.11-.67-.07-.22-.17-.45-.28-.67-.11-.22-.21-.37-.28-.45v-1.9l-.34-.33c-.3,0-.67-.07-1.12-.22-.15-.67-.34-1.19-.56-1.57-.22-.3-.52-.48-.89-.56-.37-.07-.78-.19-1.23-.34-.97.3-2.01.56-3.13.78s-2.2.52-3.24.89c-.52.07-1.01.11-1.45.11s-.89.04-1.34.11c-.75.3-1.4.77-1.96,1.4-.56.63-1.1,1.25-1.62,1.84-.3.37-.56.78-.78,1.23-.22.45-.49.86-.78,1.23-.08.08-.11.3-.11.67.22.6.56.97,1.01,1.12.45.07.89.19,1.34.33.45.15.93.3,1.45.45.22-.07.43-.11.61-.11s.39-.04.62-.11c.89-.37,1.64-.41,2.24-.11.6.08,1.13.08,1.62,0,.48-.07.99-.15,1.51-.22.45.22.91.37,1.4.45.48.08.95.19,1.4.34.97.3,1.9.45,2.79.45s1.79-.11,2.68-.34c.37-.37.56-.71.56-1.01Z"/>
      <path class="st1" d="M547.22,327.15c.15,1.19-.04,2.05-.56,2.57-.37.45-.62.93-.73,1.45s-.21,1.08-.28,1.68c-.15.22-.28.45-.39.67s-.24.45-.39.67c-.3.3-.58.63-.84,1.01-.26.37-.5.75-.73,1.12-.15.3-.26.63-.34,1.01-.07.38-.19.75-.33,1.12-.08.07-.13.17-.17.28-.04.11-.09.21-.17.28-.08.07-.17.11-.28.11s-.21.04-.28.11h-.56c-1.64-.67-3.24-.71-4.81-.11-.3.08-.56.11-.78.11h-.78c-.22.08-.43.11-.61.11s-.36.04-.5.11c-.89.37-1.68.86-2.35,1.45-.67.6-1.3,1.23-1.9,1.9-.3.89-.61,1.81-.95,2.74-.33.93-.5,1.96-.5,3.07,0,.08-.04.21-.11.39-.07.19-.15.35-.22.5-.08.3-.17.54-.28.73-.11.19-.24.43-.39.73-.15.45-.33.89-.56,1.34-.22.45-.41.89-.56,1.34.15.52.13,1.01-.06,1.45-.19.45-.28.89-.28,1.34.15.67.17,1.29.06,1.84s-.24,1.14-.39,1.73c-.22.67-.32,1.36-.28,2.07.04.71.05,1.4.05,2.07-.07.82-.09,1.68-.05,2.57.04.89.05,1.75.05,2.57,0,.52-.04,1.08-.11,1.68-.07.6-.11,1.19-.11,1.79-.22.45-.41.75-.56.89-.52.82-1.16,1.4-1.9,1.73-.75.34-1.57.46-2.46.39-.6-.08-1.21-.15-1.84-.22-.63-.08-1.25-.15-1.84-.22-.3-.08-.67-.17-1.12-.28s-.86-.24-1.23-.39c-.3.07-.54.13-.73.17-.19.04-.39.09-.61.17-.97-.3-1.86-.86-2.68-1.68.07-.52.11-1.04.11-1.57s.04-1.04.11-1.56c-.08-.22-.13-.5-.17-.84-.04-.34-.13-.65-.28-.95-.08-.45-.19-.89-.33-1.34-.15-.45-.19-.93-.11-1.45-.08-1.12-.3-2.42-.67-3.91.15-.15.28-.35.39-.61.11-.26.2-.5.28-.73.07-.22.13-.43.17-.62.04-.19.06-.39.06-.62,0-.15.04-.28.11-.39s.04-.24-.11-.39c-.07-.22-.13-.46-.17-.73-.04-.26-.09-.5-.17-.73-.08-.74-.08-1.49,0-2.24.07-.3.13-.58.17-.84.04-.26.09-.54.17-.84.15-.37.21-.78.17-1.23-.04-.45-.24-.82-.62-1.12-.07-.07-.13-.17-.17-.28-.04-.11-.13-.21-.28-.28-.07-.37-.13-.78-.17-1.23-.04-.45-.13-.86-.28-1.23-.07-.52-.17-1.01-.28-1.45-.11-.45-.17-.93-.17-1.45.15-.89.18-1.77.11-2.63-.08-.86,0-1.73.22-2.63,0-.15-.02-.34-.06-.56-.04-.22-.06-.41-.06-.56-.08-.82-.13-1.64-.17-2.46-.04-.82.09-1.64.39-2.46.15-.3.22-.63.22-1.01v-1.12c0-.67.02-1.32.06-1.96.04-.63.2-1.25.5-1.84,0-.22-.11-.6-.34-1.12.15-.37.28-.76.39-1.17.11-.41.2-.8.28-1.17.15-.37.26-.73.33-1.06.07-.33.15-.65.22-.95.45-.45.86-.63,1.23-.56.74.22,1.51.24,2.29.05.78-.18,1.55-.24,2.29-.17.22,0,.45-.06.67-.17.22-.11.45-.2.67-.28,1.27-.37,2.31-.33,3.13.11.52.89.82,1.56.89,2.01.07.45.15,1.53.22,3.24.22.82.63,1.6,1.23,2.35.15.15.39.24.73.28.33.04.58-.02.73-.17.3-.22.56-.43.78-.62.22-.19.45-.43.67-.73.45-.37.88-.76,1.29-1.17s.76-.76,1.06-1.06c.82-.37,1.62-.74,2.4-1.12.78-.37,1.66-.74,2.63-1.12h2.57l.22-.11c.07,0,.13-.02.17-.06.04-.04.09-.02.17.06l.33-.11c.89.45,1.68.56,2.35.34,1.19-.37,2.35-.22,3.46.45.67.3,1.3.6,1.9.89.6.3,1.23.63,1.9,1.01.22.3.48.6.78.89.3.3.56.6.78.89Z"/>
    </g>
  </g>
  <g>
    <path class="st1" d="M410.06,154.44c3.63-16.91,7.98-54.26-14.51-58.1-15.85-2.7-48.47,2.48-57.38,18.47-6.77-2.46-13.94-4.53-20.87-4.52-6.93-.02-14.1,2.06-20.87,4.52-8.91-15.99-41.53-21.17-57.37-18.47-22.49,3.84-18.13,41.2-14.51,58.1-17.56,21.45-9.94,52.48-8.62,80.37,1.48,31.11,18.3,40.87,48.18,38.06,16.57-1.56,33.1-9.24,33.14-27.43,0-5.16-.11-49.88-.49-49.84,6.84-.04,13.69.03,20.53.14,6.84-.12,13.69-.19,20.53-.14-.38-.04-.49,44.67-.49,49.84.04,18.18,16.57,25.87,33.14,27.43,29.89,2.81,46.71-6.95,48.18-38.06,1.32-27.89,8.95-58.92-8.62-80.37ZM369.87,115.17c7.14-1.9,14.56-3.12,21.95-2.84,5.91.22,4.95,18.11,3.5,29.96-13.14-8.1-26.96-15.23-41.22-21.15,1.43-.65,3.74-2.06,4.5-2.38,3.64-1.52,7.47-2.57,11.27-3.58ZM242.78,112.33c7.29-.69,14.93,1.13,21.95,2.84,3.84.93,7.58,2.18,11.27,3.58.76.29,3.08,1.71,4.51,2.38-14.29,5.94-28.13,13.07-41.28,21.19-1.51-11.77-2.51-29.41,3.55-29.99ZM405.11,193.02c-1.03,16.25-.46,34.34-3.67,50.27-3.27,16.21-19.34,16.01-33.5,12.7-5.83-1.37-14.15-4.72-14.15-7.83-.02-9.16-.04-18.33-.06-27.49-.04-14.93,4.58-36.62-12.88-40.9-.89-.34-1.88-.57-3-.57-6.15-.04-13.24-.54-20.53-.84-7.29.3-14.39.8-20.53.84-1.13,0-2.11.24-3,.57-17.46,4.28-12.85,25.98-12.88,40.9-.02,9.17-.04,18.33-.06,27.49,0,3.11-8.32,6.46-14.15,7.83-14.15,3.32-30.22,3.51-33.5-12.7-3.21-15.93-2.64-34.03-3.67-50.27-1.38-21.59,8.85-31.41,26.43-41.6,14.57-8.44,30.05-15.53,45.98-20.99,5.36-1.84,10.45-2.5,15.4-2.36,4.94-.14,10.04.52,15.4,2.36,15.92,5.46,31.41,12.55,45.98,20.99,17.59,10.19,27.81,20.01,26.43,41.6Z"/>
    <path class="st1" d="M258.35,220.29c-4.29,0-7.77,3.48-7.77,7.77s3.48,7.77,7.77,7.77,7.77-3.48,7.77-7.77-3.48-7.77-7.77-7.77Z"/>
    <path class="st1" d="M376.25,220.29c-4.29,0-7.77,3.48-7.77,7.77s3.48,7.77,7.77,7.77,7.77-3.48,7.77-7.77-3.48-7.77-7.77-7.77Z"/>
    <path class="st1" d="M324.42,253.65c-.2,1.22-.88,1.71-2.08,1.74-1.37.03-1.83-.59-2.5-1.61-.07-.11-.16-.17-.24-.26.08-2.41.32-4.79.28-7.18,1.79-.84,3.18-2.45,4.98-4.09,3-2.73,2.44-6.63-7.57-7.02-10.01.39-10.57,4.29-7.57,7.02,1.91,1.73,3.34,3.46,5.29,4.25.08,2.46-.28,4.95-.36,7.41-.66.98-1.07,1.39-2.41,1.48-1.2.07-1.9-.6-2.08-1.74-.51-3.13-5.26-1.8-4.75,1.31.52,3.18,3.26,4.97,6.25,5.34,2.28.28,4.09-.54,5.55-1.9.32.33.67.63,1.09.91,1.3.83,3.11,1.03,4.61,1,2.98-.08,5.76-2.37,6.25-5.34.51-3.11-4.24-4.44-4.75-1.31Z"/>
  </g>
</svg>