<?xml version="1.0" encoding="UTF-8"?>
<svg id="Capa_1" xmlns="http://www.w3.org/2000/svg" version="1.1" viewBox="0 0 634 474">
  <!-- Generator: Adobe Illustrator 29.0.0, SVG Export Plug-In . SVG Version: 2.1.0 Build 186)  -->
  <defs>
    <style>
      .st0 {
        fill-rule: evenodd;
      }

      .st0, .st1 {
        fill: #fb6003;
      }
    </style>
  </defs>
  <g>
    <path class="st1" d="M178.83,186.59c-4.39-1.52-9.12-.61-13.63-.36-6.51-.76-12.65-3.64-17.46-8.06-2.64-2.51-6.29-3.53-9.83-3.93-5.1-.84-10.27-.22-15.35.45-4.43.84-8.98,1.67-13,3.82-5.32,3.06-9.74,7.41-13.83,11.93-3.14,3.82-6.35,7.72-8.31,12.32-.82,1.85-1.19,4.38.62,5.78,5.46,5.27,12.13,9.06,18.72,12.71,1.68.73,3.34,2.11,5.26,1.75,3.44-2.15,5.08-6.37,5.13-10.3.31-5.4-3.52-9.93-3.65-15.27-.44-4.63,1.9-8.93,4.46-12.57-2.92,6.28-2.17,13.63.61,19.79,1.59,3.58,1.88,7.56,1.51,11.43-1.07,4.38-2.21,9.53-6.25,12.13-4.57-1.22-8.72-3.7-12.88-5.89-.38,1.67-.72,3.34-1.12,5.01-1.23,5.84-2.7,11.63-4.49,17.33-3.33,10.82-8.38,21.31-15.53,30.12-1.54,1.9-3.17,3.71-4.92,5.43.91.84,1.85,1.66,2.8,2.45,1.86-.12,3.71-.25,5.58-.24,1.75,0,3.54-.21,5.3-.61,5.27-1.15,10.21-4.04,12.93-8.81,3.28-5.91,4.13-12.74,6.32-19.05,1.42-3.87,3.3-7.68,6.26-10.59,3.72-3.71,8.9-5.71,14.08-6.2.52,2.29.1,4.63.24,6.94.91,1.2,2.51,1.5,3.76,2.22,1.91.96,3.59,2.28,5.29,3.55.77,1.48,1.63,2.92,2.66,4.25.45,2.09.22,4.65,2,6.17,1.68.88,3.39,1.75,5.06,2.67-1.4,7.22-8.69,12.23-15.87,11.54.99,7.47,1.99,15.55-.65,22.75-.22.6-.46,1.19-.73,1.78,8.95.03,17.91.03,26.86.03l1.26-3.64.83-2.39c3.61-12.39,2.64-25.88-2.2-37.81-2.49-6.68-6.27-12.81-8.55-19.57-1.71-4.72-.09-10.08,2.86-13.94,6.5-6.61,15.67-9.81,21.98-16.63,4.59-4.87,6.67-11.86,5.88-18.47ZM145.8,192.87c-.9,2.21-4.08,3.04-5.75,1.2-2.14-1.68-1.18-5.23,1.27-6.05,2.71-1.19,5.93,2.23,4.49,4.85Z"/>
    <path class="st1" d="M129.6,257.16c1.73-1.14,3.44-.56,5.09-.06.29,1.08.58,2.16.86,3.25-1.05,1.29-2.42,2.58-4.25,1.97-2.31-.6-2.07-3.45-1.7-5.16Z"/>
  </g>
  <g>
    <path class="st1" d="M279.46,326.4c0,4.27-.94,7.52-2.82,9.74-1.88,2.23-4.61,3.34-8.19,3.34-3.39,0-6.02-1.02-7.91-3.06-1.88-2.04-2.82-5.51-2.82-10.4v-39.72c0-2.01.27-3.75.8-5.22.53-1.47,1.3-2.65,2.31-3.53,1-.88,2.13-1.52,3.39-1.93,1.25-.41,2.67-.61,4.24-.61h30.87c3.64,0,6.35.56,8.14,1.69,1.79,1.13,2.68,3.17,2.68,6.12,0,2.76-.77,4.69-2.31,5.79-1.54,1.1-4.06,1.65-7.58,1.65h-20.8v11.01h16.57c1.69,0,3.12.13,4.28.38,1.16.25,2.1.67,2.82,1.27.72.6,1.22,1.32,1.51,2.17.28.85.42,1.93.42,3.25,0,2.13-.79,3.66-2.35,4.57-1.57.91-4.08,1.36-7.53,1.36h-15.72v12.14Z"/>
    <path class="st1" d="M340.92,325.37c0,4.89-.91,8.47-2.73,10.73-1.82,2.26-4.58,3.39-8.28,3.39s-6.32-.97-8.05-2.92c-1.73-1.94-2.59-5.43-2.59-10.45v-39.82c0-7.53,3.54-11.3,10.64-11.3,3.64,0,6.38.69,8.24,2.07,1.85,1.38,2.78,4.17,2.78,8.38v39.91Z"/>
    <path class="st1" d="M413.4,330.55c0,2.76-.82,4.94-2.45,6.54-1.63,1.6-4.02,2.4-7.15,2.4-.82,0-1.63-.09-2.45-.28-.82-.19-1.68-.53-2.59-1.04-.91-.5-1.71-.97-2.4-1.41-.69-.44-1.55-1.11-2.59-2.02-1.04-.91-1.85-1.63-2.45-2.17-.6-.53-1.52-1.4-2.78-2.59-1.26-1.19-2.16-2.07-2.73-2.64l-17.23-16.28v20.43c0,3.07-.58,5.18-1.74,6.31-1.16,1.13-3,1.69-5.51,1.69-2.76,0-4.8-.63-6.12-1.88-1.32-1.25-1.98-3.36-1.98-6.31v-45.46c0-3.58.91-6.27,2.73-8.09,1.82-1.82,4.42-2.73,7.81-2.73,2.32,0,4.19.36,5.6,1.08,1.41.72,3.09,2.02,5.04,3.91l23.81,23.72v-20.52c0-2.7.67-4.72,2.02-6.07s3.18-2.02,5.51-2.02c2.7,0,4.64.63,5.84,1.88,1.19,1.26,1.79,3.29,1.79,6.12v47.44Z"/>
    <path class="st1" d="M450.67,275.11c9.79,0,17.65,2.82,23.58,8.47,5.93,5.65,8.9,13.43,8.9,23.34,0,3.2-.3,6.31-.89,9.32-.6,3.01-1.59,5.95-2.97,8.8-1.38,2.86-3.11,5.33-5.18,7.44-2.07,2.1-4.71,3.8-7.91,5.08-3.2,1.29-6.81,1.93-10.82,1.93h-18.54c-3.83,0-6.57-.97-8.24-2.92-1.66-1.94-2.49-5.46-2.49-10.54v-39.72c0-7.47,3.58-11.2,10.73-11.2h13.84ZM447.85,326.69c1.63,0,3.06-.17,4.28-.52,1.22-.34,2.38-.97,3.48-1.88,1.1-.91,1.99-2.12,2.68-3.62.69-1.51,1.24-3.44,1.65-5.79.41-2.35.61-5.13.61-8.33,0-3.58-.31-6.6-.94-9.08-.63-2.48-1.54-4.36-2.73-5.65-1.19-1.29-2.49-2.2-3.91-2.73-1.41-.53-3.12-.83-5.13-.89v38.5Z"/>
    <path class="st1" d="M531.81,301.27c3.33,0,5.66.53,7.01,1.6,1.35,1.07,2.02,2.89,2.02,5.46,0,2.13-.8,3.66-2.4,4.57-1.6.91-4.09,1.36-7.48,1.36h-15.25v9.98l20.43.09c3.51,0,6.04.52,7.58,1.55,1.54,1.04,2.31,2.87,2.31,5.51,0,3.01-.89,5.11-2.68,6.31-1.79,1.19-4.5,1.79-8.14,1.79h-30.5c-3.7,0-6.42-.99-8.14-2.97-1.73-1.98-2.59-5.47-2.59-10.49v-39.72c0-7.53,3.58-11.3,10.73-11.3h30.5c3.64,0,6.35.56,8.14,1.69,1.79,1.13,2.68,3.17,2.68,6.12,0,2.76-.77,4.69-2.31,5.79-1.54,1.1-4.06,1.65-7.58,1.65h-20.52v11.01h16.19Z"/>
    <path class="st1" d="M578.12,325.37c0,9.41-3.67,14.12-11.01,14.12-3.7,0-6.42-.99-8.14-2.97-1.73-1.98-2.59-5.47-2.59-10.49v-39.72c0-3.64.99-6.42,2.96-8.33,1.98-1.91,4.56-2.87,7.76-2.87h19.77c7.72,0,13.96,1.8,18.73,5.41,4.77,3.61,7.15,8.24,7.15,13.88,0,4.27-.89,7.61-2.68,10.02-1.79,2.42-4.66,4.19-8.61,5.32,3.01.19,5.8,1.65,8.38,4.38,2.57,2.73,3.86,6.13,3.86,10.21s-.39,7.33-1.18,9.55c-.79,2.23-1.9,3.72-3.34,4.47s-3.48,1.13-6.12,1.13c-3.7,0-6.42-.77-8.14-2.31-1.73-1.54-2.59-3.87-2.59-7.01,0-3.89-.38-6.89-1.13-8.99-.75-2.1-1.73-3.47-2.92-4.09-1.19-.63-2.86-.94-4.99-.94l-5.18.09v9.13ZM592.52,293.74c0-3.01-1.1-5.08-3.29-6.21-2.2-1.13-5.9-1.69-11.11-1.69v16.28c4.89,0,8.52-.61,10.87-1.84,2.35-1.22,3.53-3.4,3.53-6.54Z"/>
  </g>
  <g>
    <path class="st1" d="M300.37,229.16c0,9.57-1.77,16.4-5.32,20.48s-8.98,6.12-16.31,6.12-12.71-1.86-16.13-5.58c-3.43-3.72-5.14-10.31-5.14-19.77v-74.82c0-7.21,1.95-12.56,5.85-16.05,3.9-3.48,9.04-5.23,15.42-5.23h31.56c7.68,0,14.77,1.04,21.28,3.1,6.5,2.07,12.14,4.96,16.93,8.69,4.79,3.72,8.51,8.39,11.17,14.01,2.66,5.62,3.99,11.85,3.99,18.7,0,8.39-2.42,15.69-7.27,21.9-4.85,6.21-11.23,10.85-19.15,13.92-7.92,3.07-16.84,4.61-26.77,4.61h-10.11v9.93ZM322.71,176.33c0-4.37-.42-7.83-1.24-10.37-.83-2.54-2.28-4.46-4.34-5.76-2.07-1.3-4.32-2.16-6.74-2.57-2.42-.41-5.76-.62-10.02-.62v39c3.31,0,6.23-.29,8.78-.89,2.54-.59,4.88-1.6,7-3.01,2.13-1.42,3.75-3.46,4.88-6.12,1.12-2.66,1.68-5.88,1.68-9.66Z"/>
    <path class="st1" d="M454.26,183.77c6.26,0,10.67,1.01,13.21,3.01,2.54,2.01,3.81,5.44,3.81,10.28,0,4.02-1.51,6.89-4.52,8.6-3.01,1.71-7.71,2.57-14.1,2.57h-28.72v18.79l38.47.18c6.62,0,11.38.97,14.27,2.93,2.9,1.95,4.34,5.41,4.34,10.37,0,5.67-1.68,9.63-5.05,11.88-3.37,2.25-8.48,3.37-15.34,3.37h-57.44c-6.98,0-12.09-1.86-15.34-5.58-3.25-3.72-4.88-10.31-4.88-19.77v-74.82c0-14.18,6.74-21.28,20.21-21.28h57.44c6.85,0,11.97,1.06,15.34,3.19,3.37,2.13,5.05,5.97,5.05,11.52,0,5.2-1.45,8.84-4.34,10.9-2.9,2.07-7.65,3.1-14.27,3.1h-38.65v20.74h30.49Z"/>
    <path class="st1" d="M577.12,229.16c0,6.74-.83,12.09-2.48,16.04-1.66,3.96-3.93,6.71-6.83,8.24-2.9,1.54-6.71,2.3-11.44,2.3-6.98,0-12.03-1.86-15.16-5.58-3.13-3.72-4.76-10.31-4.88-19.77l-.35-65.42h-15.07c-7.45,0-13.03-1.18-16.75-3.55-3.72-2.36-5.59-6.56-5.59-12.59,0-3.66.74-6.56,2.22-8.69,1.48-2.13,3.69-3.63,6.65-4.52,2.95-.89,6.91-1.33,11.88-1.33h75.88c6.62,0,11.41,1.18,14.36,3.55,2.95,2.37,4.43,6.44,4.43,12.23,0,3.9-.86,6.94-2.57,9.13-1.72,2.19-3.99,3.7-6.83,4.52-2.84.83-6.5,1.24-10.99,1.24h-16.49v64.18Z"/>
  </g>
  <path class="st0" d="M63.08,280.11l-10,10c-2.28-.08-4.59.74-6.32,2.48l-24.27,24.27c-3.31,3.31-3.31,8.72,0,12.03l7.9,7.9c3.31,3.31,8.72,3.31,12.03,0l24.27-24.27c1.73-1.73,2.56-4.04,2.48-6.32l10-10c35.47,27.56,86.74,25.04,119.32-7.54,35.31-35.31,35.31-92.56,0-127.87-35.31-35.31-92.56-35.31-127.87,0-32.58,32.58-35.1,83.85-7.54,119.32M182.4,176.88c26.42,26.42,26.42,69.26,0,95.69-26.42,26.42-69.26,26.42-95.69,0-26.42-26.42-26.42-69.26,0-95.69,26.42-26.42,69.26-26.42,95.69,0Z"/>
</svg>