<?xml version="1.0" encoding="UTF-8"?>
<svg id="Capa_1" xmlns="http://www.w3.org/2000/svg" version="1.1" viewBox="0 0 634 474">
  <!-- Generator: Adobe Illustrator 29.0.0, SVG Export Plug-In . SVG Version: 2.1.0 Build 186)  -->
  <defs>
    <style>
      .st0 {
        fill: #fb6003;
      }
    </style>
  </defs>
  <path class="st0" d="M396.8,78.13c-22.01-22.01-51.28-34.13-82.4-34.13s-60.39,12.12-82.4,34.13c-22.01,22.01-34.13,51.28-34.13,82.4s12.12,60.39,34.13,82.4l82.4,82.4,82.4-82.4c22.01-22.01,34.13-51.28,34.13-82.4s-12.12-60.39-34.13-82.4ZM243.08,231.85h0c-39.31-39.32-39.32-103.3,0-142.62,39.32-39.32,103.3-39.32,142.62,0,17.37,17.37,27.06,39.54,29.08,62.28-17.59-7.87-31.14-18.82-44.34-29.49-17.54-14.18-35.67-28.85-62.07-35.07l-8.02-1.89-1.5,8.1c-.17.9-3.57,19.71-1.16,36.62-9.7,4.52-18.17,10.26-27.2,18.38-15.07,2.7-27.71,4.75-27.85,4.77l-6.59,1.07v6.67c0,15.3,4.53,27.21,13.46,35.41,10.81,9.92,27.43,14.02,50.76,12.5,13.05,11.53,23.23,23.82,31.29,37.98,8.46,14.86,5.84,33.56-6.25,45.66h0c-6.04,6.04-15.83,6.04-21.86,0l-60.38-60.38ZM359.3,258.25l-3.31,3.31c-10.51-26.94-25.51-47.85-47.94-67l-2.49-2.13-3.27.28c-20.18,1.73-34.36-1.02-42.15-8.17-4.43-4.06-7.07-9.75-8-17.27,5.65-.95,14.17-2.4,23.37-4.07l2.25-.41,1.68-1.56c10.12-9.37,18.83-15.01,30.04-19.45l6.43-2.55-1.72-6.7c-2.29-8.92-1.8-20.27-1.04-27.93,18.6,6.29,32.12,18.36,47.44,29.6,35.08,25.76,30.25,92.5-1.29,124.04Z"/>
  <path class="st0" d="M308.45,167.6c3.56-.11,5.81-2.4,5.79-5.89-.01-2.98-3.23-6.34-6.06-6.21-4.68.22-6.1,2.27-6.19,6.25-.07,3.53,2.78,5.97,6.45,5.85Z"/>
</svg>